<?xml version="1.0" encoding="UTF-8"?>
<svg version="1.1" viewBox="0 0 2048 2048" width="1280" height="1280" xmlns="http://www.w3.org/2000/svg">
<path transform="translate(1210,32)" d="m0 0h11l10 3 9 7 6 10 2 10 2 30 4 27 6 25 7 21 9 21 9 17 17-4 21-4 15-2 17-1h232l26 2 24 4 20 5h2l8-15 10-24 7-21 5-20 4-25 2-25 1-15 4-11 8-9 10-5 4-1h11l9 3 11 7 17 13 19 14 21 16 13 10 10 9 4 3v2l3 1 7 8 10 13 8 13 8 16 5 12 6 20 3 18 1 10v16l-2 22-6 25-8 20-9 17-10 14-9 11-5 6 21 1 21 3 19 5 20 8 16 9 17 12 13 12 8 8 13 17 10 17 9 20 6 20 3 19 1 16v90l-1 9-6 11-7 7-11 4-9 1h-38l-26-2-19-4-20-7-20-10-13-8 1 5-12 166-8 112-4 54-4 21-6 17-8 17-10 16-8 10-11 13-11 11-14 11-12 9-15 9-27 14-3 40-4 30-6 29-6 23-11 33-11 26-10 21-12 21-1 3-1 20-2 65-4 60-5 51-4 33-7 50-8 47-12 60-13 55-3 11 1 4 16 9 17 13 14 13 11 14 10 15 11 23 6 20 3 19 1 16v66l-1 9-6 11-7 7-11 4-13 1h-379l-11-2-10-6-6-8-4-11v-82l3-20 5-19 9-21 9-15 10-14 6-7h2l2-4 9-8v-9l-14-68-11-62-10-68-8-68-5-53-1-20-31 9-44 12-50 11-48 9h-2l-3 10-7 16-10 17-9 12-12 14-12 12-11 9-17 12-18 10-19 9-1 82-5 1h-58l-1-1v-65l-6 1h-54l-4-1v65l-5 1h-58l-1-1v-82l-9-3-26-14-17-12-10-8-12-11-8-8-9-11-10-14-10-18-8-19-7-24h-2l-2 59-4 61-4 43-8 65-9 63-2 13 6 2 17 10 14 11 13 12 9 11 10 14 12 23 7 21 3 14 2 25v66l-1 9-6 11-7 7-11 4-13 1h-379l-11-2-10-6-6-8-4-11v-82l3-20 5-19 9-21 9-15 10-14 6-7h2l2-4 13-12 3-3-4-18-16-64-16-63-18-73-38-152-3-20-7-102-21-316-1-23v-17l2-27 4-25 6-27 9-30v-3l-13 13-7 8-8 10-13 18-12 21-8 16-7 16-8 24-6 25-3 23-1 12v466l58 29 16 10 11 9 13 13 11 16 8 16 7 21 2 12 1 13v140l-2 9-5 8-7 7-10 4h-17l-10-5-19-14-13-10-48-36-13-10-13-12-9-10-11-17-8-18-5-19-2-15v-608l2-25 4-25 6-25 10-30 10-24 10-19 13-22 10-14 9-12 11-13 9-10 19-19 8-7 14-11 15-11 19-12 22-12 33-14 10-5 12-11 14-11 14-10 19-12 14-8 24-11 24-9 26-7 21-4 33-4 418-38 36-3 6-1 1-70 3-21 5-19 10-24 12-20 13-16 7-8 8-7 14-11 13-8 15-8 19-7 21-5 16-2h21l-3-5-10-11-11-16-7-12-8-19-6-20-4-25v-28l3-20 5-19 6-16 8-16 9-14 10-13 14-15 13-11 19-14 21-16 19-14 13-10 10-5z" fill="#010000"/>
<path transform="translate(1095,609)" d="m0 0h2l3 39 1 3 1 13 1 26 1 13 1 4 3 52 8 112 1 2 1 13 1 28 3 36 4 18 5 15 8 17 10 16 11 14 11 12 8 8 11 9 18 13 26 15 25 11 30 10 27 6 30 4 16 1h29l32-3 23-4 23-6 8 1 26 6 26 4 24 2h30l24-2 24-3v15l-2 14-1 1-3 19-6 26-9 29-11 28-14 28-15 25-8 12-13 17-11 13-9 10-14 15-8 7-2 3h-2v-63h-63v23l-2 134-1 23-1 1-1 42-2 31-1 1-1 30-2 25-1 1-2 36-1 9-1 2-2 32-1 8-1 1-1 20-1 9-2 10-1 13h-7l-1-1-8-1-30-1-17 1-15 3-4 1-2-2-5-25-9-46-9-53-8-55-8-67-6-68-3-47-2-48-1-53v-22l-63 3v60l1 27v14l-36 12-21 6-34 9-41 9-38 7-36 5-11 2-27 2-3 1-11 1-65 2h-26l-71-2-11-1-2-1-43-4-14-2-8-2-18-2-6-2-15-2-1-1-14-2-15-4-9-2-32-8-14-4-10-2-4-2-12-3-10-4 1-6 6-13 1-4h2l3-9 14-29 9-19 7-13 1-4-9-3-15-8-5-2-24-12-4-1-10 21-10 19-16 34-14 32-3 7-4 10-12 29-4 13h-2l-1 6-10 27-15 44-15 50-12 45-11 47-3 18-2 6-9 49-3 19-2 15-1 2-27 2-2 1-13 1-2-7-18-71-71-284-1-7v-22l1-1 18-3 13-4 9-4 8-3 9-5 7-3 13-8 13-10 11-10 13-13 13-17 9-14 2-5 8-16 5-16 3-8 4-20 2-16v-26l-3-24-6-23-4-9-5-13-9-17-8-12-11-14-12-13-10-9-13-10-13-8-12-7-19-8-19-6-22-4-20-2-1-1-1-11-1-3v-42l1-10 1-2 2-17 4-16 9-32 3-10 5-11 3-8h2l3-9 12-20 10-14 14-17 24-24 13-10 14-10 12-7h2v-2l21-10 11-5 32-10 30-5-3 23-1 2-1 30 1 20 4 21 5 17 3 6 4 11 11 21 10 14 9 11 11 12 8 7 18 14 19 11 18 8 21 7 19 4 18 2h22l26-3 23-6 12-5 8-3 7-4 7-3 15-9 12-9 12-11 14-14 12-16 11-18 4-9 4-8 5-16 3-8 4-19 2-17v-26l-3-24-4-16-2-7-4-11-4-9v-3l98-9 34-3 6-1 53-1 21-2 19-4 15-5 12-6 8-3 11-7z" fill="#E4E4E4"/>
<path transform="translate(1387,255)" d="m0 0h43l58 1-2 5-6 9-3 6-7 12-6 15-4 8-8 24-6 24-3 17-1 9-1 37 1 26 5 30 2 5 3 14 8 24 11 24 9 17 9 14 14 19 13 15 22 22 14 11 12 9 19 12 12 7 19 9 24 9 21 6 24 5 16 2 14 1h31l22-2 3-1h7l-3 47-1 12-1 27-1 13-2 9-3-1-3-3v-2l-4-2-10-8-18-12-16-9-16-8-15-6-13-5-9-2-17-5-12-2-7-2-23-3-28-1h-15l-25 1-27 4-23 5-9 3-7-1-30-7-29-4-26-1h-16l-25 1-27 4-23 5-20 6-19 7-20 9-21 12-17 12-16 13-4 2-9-129-12-168v-14h-2v-50l2-12 2-6 6-24 10-25 8-17h2l2-5 7-11 11-14 9-10 15-15 17-13 14-9h2v-2l6-3 9-4 9-5 13-5 19-5 20-4 12-2z" fill="#E4E4E4"/>
<path transform="translate(818,928)" d="m0 0h30l19 3 17 5 10 4 16 8 16 10 11 9 13 12 9 11 12 18 8 16 6 16 4 15 26 2 20 4 24 9 17 9 11 8 10 8 10 9 7 8 10 13 8 13 8 16 6 17 4 17 2 15v25l-3 21-6 21-6 14-6 12-8 12-8 10-9 10-9 9-13 10-13 8-13 7-10 4-15 5-13 2-1 1-17 2h-22l-21-3-15-4-16-6-21-11-11-8-10-8-8-7-7-8-9-11-9-14-8-16-6-15-4-13v-4h-14l-22-3-21-6-16-7-15-8-19-14-10-9-7-8-9-11-9-14-8-16-6-15-5-20-1-6-1-27 1-18 4-20 6-18 8-17 12-18 8-10 7-8h2l1-3 11-9 13-10 22-12 16-6 20-5z" fill="#010000"/>
<path transform="translate(1352,800)" d="m0 0h44l25 3 22 5 22 6h13l29-8 28-5 9-1h46l23 3 24 5 27 9 15 7 19 10 14 10 10 8 14 14 10 14 8 15 5 17 1 7v20l-5 19-8 16-8 12-11 12-9 9-15 11-15 9-23 11-24 8-26 6-29 4h-37l-26-3-22-5-27-7h-7l-40 10-25 4-9 1h-36l-26-3-24-5-30-10-25-12-13-8-12-9-10-9-10-10-10-14-8-15-5-17-1-7v-18l3-15 6-15 6-11 8-11 12-13 13-11 15-10 23-12 23-9 26-7 24-4z" fill="#C16B60"/>
<path transform="translate(1570,256)" d="m0 0h21l24 3 18 4 24 8 25 12 19 12 14 11 13 12 12 12 10 13 9 13 10 18 8 17 7 21 4 16 3 19 1 11v29l-6 87-4 52-2 8-13 3-16 2-15 1h-17l-23-2-21-4-26-8-23-10-16-9-17-12-10-8-10-9-14-14-13-17-10-15-14-27-8-21-6-24-3-20-1-13v-26l3-23 5-23 9-26 11-23 11-17 12-16 9-10z" fill="#515559"/>
<path transform="translate(820,992)" d="m0 0h24l18 4 12 5 15 9 12 11 10 11 8 14 5 12 3 11 1 6 1 24 3 9 3 4v2l4 2 8 5 5 2h13l16-3h22l16 3 15 6 15 9 13 12 8 9 9 15 6 16 3 15v22l-3 15-5 13-7 13-11 14-7 7-13 9-16 8-17 5-6 1h-21l-16-3-13-5-12-6-11-8-8-7-11-14-9-17-5-18-1-5-1-24-5-12-8-8-10-4h-16l-17 3h-17l-16-3-13-5-12-6-13-10-10-10-9-13-6-12-5-16-2-11v-19l4-20 7-17 8-12 9-10 8-8 14-9 13-6 14-4z" fill="#515559"/>
<path transform="translate(734,660)" d="m0 0h10l11 19 8 20 4 18 1 7v24l-3 17-5 16-6 14-10 16-9 11-12 12-14 10-21 11-23 7-13 2h-24l-22-4-19-7-15-8-14-10-6-5v-2l-4-2-11-13-11-18-6-13-5-17-2-9-1-9v-21l4-23 7-21 2-2 13-2 120-11z" fill="#515559"/>
<path transform="translate(233,1056)" d="m0 0 11 1 17 4 16 6 15 8 12 9 10 9 8 8 11 15 9 17 7 21 3 18v25l-3 17-6 18-8 16-8 12-8 10-12 12-14 10-17 9-22 8h-5l-6-89-6-91-4-57z" fill="#515559"/>
<path transform="translate(1565,1404)" d="m0 0h2l-3 39-3 37-4 39-7 54-9 55-12 60-13 56-3 12h-2v4l-25 2h-7l-1-3 5-46 6-69 5-68 4-69 2-42 1-6 6-5h2v-2l7-4 7-6 14-11 11-10 8-7z" fill="#A3A9B2"/>
<path transform="translate(372,1824)" d="m0 0h23l16 3 17 7 11 7 10 8 9 9 9 13 7 14 4 13 2 18v35l-2 1h-59l-3-1v-63h-64v63l-2 1h-59l-3-1v-32l2-19 4-15 8-16 9-12 12-12 13-9 15-7 14-4z" fill="#515559"/>
<path transform="translate(1364,1824)" d="m0 0h22l17 3 17 7 11 7 10 8 9 9 9 13 7 14 4 13 2 18v35l-2 1h-59l-3-1v-63h-64v63l-2 1h-59l-3-1v-33l2-18 4-15 8-16 9-12 12-12 10-7 15-8 17-5z" fill="#515559"/>
<path transform="translate(534,1450)" d="m0 0 9 1 1 1v43l-3 60-3 41-4 41-8 63-8 55-2 5-29 3-22 4-10 4h-4l1-15 5-30h2v-10l7-37 3-14h2v-9l6-26h2l1-12h2l1-8 3-15h2l1-11h2v-7l14-47h2l2-9 3-12h2v-6h2l1-9h2l1-8h2v-6h2v-5h2l2-11 1-3h2v-5z" fill="#A4AAB2"/>
<path transform="translate(683,1487)" d="m0 0 17 2 54 7 44 4 36 2 30 1h32l33-1 37-2h7l-6 9-9 10-9 9-18 13-19 10-15 6-21 6-20 4-8 1h-33l-21-3-22-6-16-6-16-8-13-8-13-10-15-15-11-15-5-8z" fill="#BF6B60"/>
<path transform="translate(1085,416)" d="m0 0h8l-2 20-2 22v26l3 36v6l-7 8-17 17-14 10-17 8-12 4-17 3h-16v-62l2-15 5-16 8-16 7-11 9-10 11-10 13-8 13-6 18-5z" fill="#C06B60"/>
<path transform="translate(1850,416)" d="m0 0 14 1 19 5 16 8 11 7 12 11 9 10 10 16 7 17 3 15 1 10v59l-1 1h-17l-16-3-19-7-14-8-11-9-12-11v-2l-4-2-6-8 1-16 2-26v-26l-4-38z" fill="#C06B60"/>
<path transform="translate(1755,125)" d="m0 0 5 3 19 14 14 12 5 6 3 3v2h2l8 13 7 14 5 19 1 7v24l-3 16-6 16-7 14h-2v3h-2l-2 5-3 4-4-2v-2l-3-1-4-5v-2l-4-2-7-8v-2h-2v-2l-4-2-7-7-8-7-2-1v-2l-4-2-6-4v-2l-4-1v-2h-3v-2l-5-2-7-5-7-4 3-9 10-21 9-24 6-19 6-23 2-9z" fill="#F2BE99"/>
<path transform="translate(1187,125)" d="m0 0h3l4 18 1 8 3 8 10 30 11 25 6 12v5l-15 10h-2v2l-9 6-3 1v2l-4 2-4 4-5 3-4 5-8 7h-2l-2 4h-2l-2 4-5 5-7 10h-2l-2 4-4-2-1-4h-2l-6-10-8-16-5-17-1-7v-28l5-21 7-16 7-11 8-11 8-7 6-5 3-3 12-9h2v-2l4-1v-2z" fill="#F2BE99"/>
<path transform="translate(1257,480)" d="m0 0h14l11 3 11 6 9 9 7 12 3 9v16l-5 15-8 11-8 7-5 3-11 4-6 1h-10l-12-3-10-5-10-9-6-9-4-10-1-4v-18l5-12 6-9 7-7 9-6 9-3z" fill="#030202"/>
<path transform="translate(513,1824)" d="m0 0h8l17 3 13 5 13 7 13 10 9 9 10 15 7 15 4 17 1 14v32l-2 1h-59l-3-1-1-39-3-23-4-16-6-16-8-16-9-15z" fill="#515559"/>
<path transform="translate(1505,1824)" d="m0 0h9l16 3 13 5 13 7 13 10 9 9 10 15 7 15 4 17 1 15v31l-2 1h-59l-3-1-1-37-2-20-4-18-6-17-8-17-10-16z" fill="#515559"/>
<path transform="translate(1672,480)" d="m0 0h14l12 3 9 5 9 8 7 11 4 10 1 5v13l-4 12-6 10-9 9-10 6-16 4-13-1-11-4-11-7-9-11-5-11-2-9v-11l3-12 7-12 8-8 9-6z" fill="#010000"/>
<path transform="translate(1291,864)" d="m0 0h8l14 3 10 5 9 8 8 13 4 14v11l-5 15-7 10-9 8-14 7-11 2-11-1-12-4-11-7-9-11-5-11-2-8v-11l3-12 5-10 9-10 9-6 11-4z" fill="#010000"/>
<path transform="translate(1642,864)" d="m0 0h9l14 3 10 5 7 6 8 11 5 13 1 5v10l-4 14-7 11-8 8-16 8-4 1h-18l-12-4-9-6-8-8-6-10-4-14v-10l3-13 6-10 8-9 9-6 10-4z" fill="#010000"/>
<path transform="translate(96,1556)" d="m0 0 6 2 23 12 13 9 9 9 6 10 5 11 2 15v71l-4-2-11-8-19-14-14-12-6-8-7-14-2-9-1-10z" fill="#515559"/>
<path transform="translate(1668,749)" d="m0 0h9l5 3 6 2 10 3 2 2 8 3 16 8 5 3 3 3 6 2 6 4 7 3 2 1v2h8l1-4 1-2h4l1 26-3-1-3-3v-2l-4-2-10-8-18-12-16-9-16-8-15-6-13-5z" fill="#F6F5F5"/>
<path transform="translate(488,856)" d="m0 0 8 6 11 12 8 7 18 14 19 11 7 4 1 3 3 2-5 1-9-4-14-6-9-6-10-6v-2h-2v-2l-4-2v-2l-4-2-8-9-7-8-3-5z" fill="#F8F6F6"/>
<path transform="translate(1505,1325)" d="m0 0h1l2 10 1 7 1 12 1 2 7 1v-2h2v-2h2v-2h2v-2h2l2-4 5-7h2v-2l3-1 2 1v-2h2l-1 4-14 15-11 12-10 9-2 1v-44z" fill="#F7F4F4"/>
<path transform="translate(1414,256)" d="m0 0h74l-2 5-6 9-7-6-4-2-43-1-10-1-4-3z" fill="#F7F7F7"/>
<path transform="translate(702,1184)" d="m0 0h3l7 9 8 9 8 7 16 12 7 4v4l-7-1-5-3-6-3v-2l-5-1-6-5-5-6-7-6-5-6-3-6v-2h-2z" fill="#F4F3F3"/>
<path transform="translate(860,1313)" d="m0 0h5l12 13 12 12 9 7 1 4-5 1-8-4-5-6-3-2v-2l-4-2v-2l-4-2v-2l-3-1-2-3v-3h-2l-3-5z" fill="#F5F3F4"/>
<path transform="translate(1526,623)" d="m0 0 4 1 8 8 14 11 4 3 3 9-6-2-9-6-7-5-8-10-4-7z" fill="#F6F5F5"/>
<path transform="translate(1095,609)" d="m0 0h2v25h-3l-2-5v-2l-3-2-6-1-3 1-7-1 3-3 12-7z" fill="#F8F7F7"/>
<path transform="translate(827,652)" d="m0 0h13l2 3-6 3-10 2-2 7-3 3-2-1-4-11-1-5z" fill="#F5F5F6"/>
<path transform="translate(353,1040)" d="m0 0 6 1 2 4h3v3l4 2v2l3 1 4 6v2l4 2 4 5v6l-4-2-10-13-12-13-4-4z" fill="#F4F4F4"/>
<path transform="translate(288,780)" d="m0 0 1 4-3 2-2 5-4 1-1 4h-2l-1 4-4 7-4 5-3 7h-2l-1 5-2 2-1-6 12-20 10-14z" fill="#EFECEC"/>
<path transform="translate(1207,780)" d="m0 0h2l-1 4-13 9-16 13-3 2v-13l3-1 5 1 9-6 6-3z" fill="#F4F1F1"/>
<path transform="translate(446,704)" d="m0 0 2 2-2 33-2-3-2-10v-12l1-7 3-1z" fill="#FDFDFD"/>
<path transform="translate(452,686)" d="m0 0h2l-3 14-6-2-6-7 1-3z" fill="#F4F4F5"/>
<path transform="translate(568,1373)" d="m0 0h1v6l-1 5 1 3v3l4 1 4 3-11-2-6-2 1-6 4-9z" fill="#F3F3F4"/>
<path transform="translate(1770,727)" d="m0 0h1v28l-1 5-2-1-2-15v-8l2-7z" fill="#FDFDFD"/>
<path transform="translate(833,1248)" d="m0 0h2l2 7v5l-7-4-10-4 1-3z" fill="#FAFAFA"/>
<path transform="translate(1132,1295)" d="m0 0h2l-2 5-5 8-6 9-2 2-3-1 2-5 9-12 3-5z" fill="#F2F1F1"/>
<path transform="translate(1330,1750)" d="m0 0 5 3 2 6 4 2-5 5-4-1-2-7z" fill="#F2F0F0"/>
<path transform="translate(1434,1516)" d="m0 0h1v20l-2 31h-1v-36l1-14z" fill="#867E82"/>
<path transform="translate(588,1330)" d="m0 0 2 1-2 6-3 6h-2l-1 6-1 2h-2v4l-3-1 2-6 8-17z" fill="#EDEEF0"/>
<path transform="translate(271,996)" d="m0 0 8 1 15 5 9 4 5 3-4 1-14-6-19-6z" fill="#ECEDEE"/>
<path transform="translate(327,1020)" d="m0 0 5 1 11 7 2 4 2 1-1 2-4-2-15-11z" fill="#F0EFEF"/>
<path transform="translate(1429,1584)" d="m0 0h2v14l-2 25h-1v-28z" fill="#888084"/>
<path transform="translate(373,1059)" d="m0 0h2v2l4 2 4 5v6l-4-2-7-9z" fill="#F3EFEF"/>
<path transform="translate(288,780)" d="m0 0 1 4-3 2-2 5-4 1-1 4-6 3 2-4 6-9z" fill="#F1EFF0"/>
<path transform="translate(1508,604)" d="m0 0 6 4 8 8-4 2-8-7-2-4z" fill="#F1EEEF"/>
<path transform="translate(312,752)" d="m0 0h2l-1 4h-2v2h-2l-1 4h-3v2h-2l-2 4-4-1 7-8z" fill="#F3F1F2"/>
<path transform="translate(344,1751)" d="m0 0 5 4 1 5 4 2-8 2-2-7z" fill="#F4F5F5"/>
<path transform="translate(987,1044)" d="m0 0 4 1 3 7 3 3h-9z" fill="#F8F6F6"/>
<path transform="translate(1259,576)" d="m0 0 10 1v3l-2 1h-10l-3-2 1-2z" fill="#FDFDFD"/>
<path transform="translate(229,983)" d="m0 0 5 1 1 6 2 1h-8z" fill="#FDFDFD"/>
<path transform="translate(1551,1321)" d="m0 0 1 3-8 10-2 1 1-4z" fill="#EBE7E7"/>
<path transform="translate(582,1343)" d="m0 0 1 4-2 4h-2v4l-3-1 2-6z" fill="#F8F8F8"/>
<path transform="translate(271,996)" d="m0 0 8 1 8 3v2l-9-2-7-2z" fill="#E9EAEB"/>
<path transform="translate(1458,256)" d="m0 0h28l-1 3h-2v-2h-25z" fill="#D9DBDC"/>
<path transform="translate(1659,746)" d="m0 0h5l5 5-8-1-2-1z" fill="#DDD9D9"/>
<path transform="translate(1369,1121)" d="m0 0h16l-4 3h-6l-6-2z" fill="#FDFDFD"/>
<path transform="translate(746,1223)" d="m0 0 5 2v4l-7-1-1-3z" fill="#F2F3F4"/>
<path transform="translate(327,1020)" d="m0 0 5 1 4 4-2 2-7-5z" fill="#F1F2F2"/>
<path transform="translate(1207,780)" d="m0 0h2l-1 4-6 4h-2l2-4z" fill="#EFF0F1"/>
</svg>
