<?xml version="1.0" encoding="UTF-8"?>
<svg version="1.1" viewBox="0 0 2048 2048" width="1280" height="1280" xmlns="http://www.w3.org/2000/svg">
<path transform="translate(1405)" d="m0 0h24l24 4 19 6 13 6 11 6 16 12 13 12 9 11 9 12 9 16 8 20 5 21 1 8 1 20v148h119v-155l2-21 5-21 8-20 10-17 9-12 9-10 3-3 4 2 7 8 10 10 20-15 16-8 10-4 8-1-6-25v-5l6-2 17-3h28l23 5 18 6 17 8 15 10 10 8 10 9 10 11 12 17 8 16 6 15 5 21 1 8 1 106-1 1-56 1-4-2-1-36-4-11-6-8-7-5-6-2h-15l-8 4-8 9-4 12-1 99h181v43l-6 31-7 24-6 15-8 17-9 15-10 14-9 11-11 12-11 10-16 12-18 11-21 10-24 8-22 5h-3l-1 18-5 25-5 16-8 20-32 64-9 19-10 19-8 17-9 17-11 23-47 94-4 10v28l3 14 7 14 8 10 10 7 10 5 11 3 9 2 1 6v52l-1 1-44 1h-66l-25-2-17-3-16-5-11-5v39l-3 33-5 29-6 25-9 29-9 22-8 18-12 22-12 19-3 6 13 32 15 36 16 39 18 43 19 46 15 36 16 39 14 34 1 4v83l-8 5-54 27-23 11-120 60-23 11-62 31-23 11-16 8-3 2-2 11-15 110-7 53-8 59-1 5h-177v-301l3-1h26l1-60h-30v-59l1-1h29v-60h-29l-1-1v-179h-243l-35 1-15 41-9 20-12 25-13 24-12 19-12 18-14 19-11 14-13 15-9 10-3 4h-2l-2 4-16 16-8 7-13 12-12 9 3 10 12 36 22 64 15 44 15 43 18 53 8 24v130h-180l-1-4-1-117-11-33-14-40-17-49-14-39-7-21-15-43-17-49-10-30v-2l-28 13-29 11-38 12-66 18h-4l15 41 11 29 17 45 26 69 21 56 1 11v122h-181l-1-119-7-20-60-156-22-57-1-4v-137l14-18 10-14 13-17 12-16 14-19 16-21 14-19 16-21 14-19 24-32 14-19 10-13 7-9 1-3 1-47-1-4-4-2-11-9-13-12-12-12-9-11-10-12-13-19-10-17-8-16-10-23-8-25-5-21v-3l-9-1-27-7-25-9-25-12-11-7-11-8-13-11-12-12-13-17-9-15-8-16-8-21-7-27-5-29-4-36v-147l1-44h69l33 3 28 5 29 8 29 11 23 11 19 11 18 12 21 16 5 4 4-2 12-11 16-12 15-10 17-10 15-8 24-10 25-8 28-6 22-3 14-1 784-1 5-5 9-10 8-10 12-14 9-11 13-15 9-11 12-14 9-11 12-14 9-11 1-2-10-2-20-8-23-12-17-12-13-11-17-17-11-14-9-13-11-19-9-21-6-18-6-27-2-17v-40l1-1h180l-1-99-4-11-6-8-7-5-6-2h-13l-10 5-3 1-2 4-4 6-3 10-1 37-1 1h-59l-1-4v-68l1-38 4-20 6-18 8-16 10-15 11-13 9-9 13-10 14-9 21-10 19-6zm-40 1503-3 19-7 52-2 17 5-2 11-8 18-13 16-12 1-2-20-28-13-18-4-5z" fill="#010101"/>
<path transform="translate(1393,588)" d="m0 0 2 1 4 12 15 32 11 23 27 54 11 23 20 40 10 19 32 64 11 23v171l-2 25-4 24-7 28-10 28-13 28-9 16-11 17-14 19-12 14-14 15-14 13-11 9-13 10-15 10-15 9-23 12-21 9-2 9-7 50-13 98-7 52-32 238-11 80-1 4h-79v-121h-31v-60h-30v-59l1-1h29v-60h30v-246l-3-20-6-21-10-24-11-21-12-19-13-17-11-13-14-15-15-14-14-11-19-14-4 2-15 15-7 8-16 16 2 4 16 15 7 7 8 7 22 22 7 8 11 13 12 17 9 16 8 20 5 19v5h-377l1-5 11-30 12-38 13-48 10-43v-3l-45-10-13-3-3 17-10 43-10 36-12 36-7 19-11 26-8 18-10 19-11 20-13 21-12 17-12 16-9 11-12 14-16 17-7 7-8 7-12 11-14 11-13 10-30 20-24 14-31 16-25 11-34 13-33 11-29 8-36 9-29 6h-2l1 64 14 37 19 49 15 39 14 36 4 11v2h-55l-11-27-14-37-17-44-16-42-11-29-2-5-1-106 6-9 12-16 14-19 10-13 14-19 10-13 14-19 13-17 24-32 14-19 16-21 14-19 16-21 3-6v-99l-11-8-14-10-14-12-13-12-11-12-13-17-11-18-8-15-10-25-7-25-4-21-3-24-1-13v-52l4-46 1-5-58-11h-2l-1 11-2 20-1 19-1 61-10-2-21-8-16-8-11-7-14-11-9-9-10-13-9-16-8-19-6-23-4-25-2-26v-71l1-58 3-1 29 3 23 4 25 7 21 8 23 11 17 10 16 11 16 13-1 5-9 14-9 16-8 16v2l21 9 34 15 2-6 8-16 12-19 14-18 11-12 13-13 10-8 15-11 20-12 23-11 19-7 23-6 18-3 10-1 26-1h758l35-1 10-11 9-11 11-13 9-11 9-10 8-10 11-13 12-14 9-11 12-14 9-11z" fill="#F7E1C7"/>
<path transform="translate(1530,362)" d="m0 0h193l14 2 15 5 15 8 11 9 8 8 7 10 8 16 4 13 1 6 1 27v37l-1 48-4 19-7 19-12 25-114 228-2 1h-81l-5-8-69-138-9-19-10-19-24-48-11-23-6-16-3-14-2-19v-93l3-18 6-16 6-10 7-9 4-5 11-9 11-7 14-6 12-3z" fill="#F7E1C7"/>
<path transform="translate(1485,1304)" d="m0 0 2 1 6 16 85 205 16 39 2 6 1 35-5 4-76 38-23 11-72 36-19 9-56 28-11 5h-1l1-12 7-49 4-5 13-9 19-14 90-65 17-12 2-1-1-4-13-18-10-14-26-36-12-17-39-54-9-13 2-17 2-16 3-5 16-8 23-14 17-12 13-10 13-11 10-9z" fill="#F7E1C7"/>
<path transform="translate(708,1386)" d="m0 0h64l-1 6-13 32-11 23-11 20-8 13-10 15-10 14-10 13-9 11-12 13-7 8-22 22-11 9-10 9-13 10-8 6h-2v46l4 16 17 51 14 41 30 90 3 8v5h-56l-8-21-10-29-19-55-45-129-14-40 1-4 19-13 14-10 15-12 11-9 15-14 8-7 25-25 9-11 10-11 13-17 12-16 17-26 12-21 6-10z" fill="#F7E1C7"/>
<path transform="translate(1803,35)" d="m0 0 5 1 6 22v4l9-1h27l16 4 17 8 14 10 9 9 10 14 7 15v3l-8-1-6-1h-23l-14 3-13 5-11 6-15 12-7 8-9 14-5 10-1 1h-64l-1-1v-21l2-21 4-17 5-13 9-14 6-7-1-4-15-15-3-4 10-9 14-9 16-8z" fill="#656668"/>
<path transform="translate(1406,61)" d="m0 0h22l15 3 15 6 12 8 10 9 7 7 9 14 5 12 4 16 2 17v27l-1 1h-64l-3-5-9-16-11-13-10-8-15-9-14-5-7-2-8-1h-21l-11 2-4-1 9-19 9-12 11-11 14-9 13-6 14-4z" fill="#656668"/>
<path transform="translate(1568,663)" d="m0 0h119l1 1v37l-1 22-2 1h-27l-1 59-1 1h-59l-1-1v-60l-28 1-1-2v-58z" fill="#030303"/>
<path transform="translate(1269,361)" d="m0 0 147 1-3 5-10 17-8 20-5 21-2 11-1 11-1 32-16-4-16-6-17-9-14-10-13-12-8-8-12-16-10-18-6-15-5-17z" fill="#F7E1C7"/>
<path transform="translate(1838,361)" d="m0 0 145 1-1 7-7 21-12 23-9 12-12 14-10 9-17 12-19 10-24 8h-4l-2-38-3-20-6-21-7-16-6-11-6-8z" fill="#F7E1C7"/>
<path transform="translate(1176,1927)" d="m0 0h71l-1 13-6 42-1 5h-63z" fill="#656668"/>
<path transform="translate(1507,482)" d="m0 0h60v60l-1 1h-58l-2-2v-58z" fill="#050505"/>
<path transform="translate(1688,482)" d="m0 0h60v57l-2 4h-57l-2-1v-59z" fill="#050505"/>
<path transform="translate(1090,783)" d="m0 0h34l20 1 1 1v58l-1 1h-60l-1-1v-18l1-41z" fill="#FDFDFD"/>
<path transform="translate(1205,783)" d="m0 0 60 1 1 4v55l-2 1h-60v-60z" fill="#FDFDFD"/>
<path transform="translate(1116,1626)" d="m0 0h60v60l-1 1h-30l-30-1v-59z" fill="#020202"/>
<path transform="translate(634,1927)" d="m0 0 59 1 1 58-1 1h-59l-1-3v-56z" fill="#656668"/>
<path transform="translate(273,1927)" d="m0 0h58l1 1v59h-59l-1-3v-56z" fill="#656668"/>
<path transform="translate(1747,241)" d="m0 0h59v60h-59z" fill="#4C4A4A"/>
<path transform="translate(1447,241)" d="m0 0h17l42 1v59h-59z" fill="#4C4A4A"/>
<path transform="translate(1597,904)" d="m0 0h59l1 1 2 20 4 17 6 15 2 4v3h-21l-14-3-12-6-12-10-7-10-5-11-3-14z" fill="#F7E1C7"/>
<path transform="translate(1149,1688)" d="m0 0 3 1-1 4-2 3v31l1 9 3 5-1 4-4-8-2-15v-17l-1-7v-9l2 1-1 2h2z" fill="#FDFDFD"/>
<path transform="translate(1149,1568)" d="m0 0 3 1-2 5-2 4v10l1 16v11h-1l-2-12v-33z" fill="#FDFDFD"/>
<path transform="translate(1149,1688)" d="m0 0 3 1-1 4-2 3-1 10-2-1-1-7v-9l2 1-1 2h2z" fill="#FCFCFB"/>
</svg>
