<?xml version="1.0" encoding="UTF-8"?>
<svg version="1.1" viewBox="0 0 1600 1600" width="1280" height="1280" xmlns="http://www.w3.org/2000/svg">
<path transform="translate(548,216)" d="m0 0h32l17 3 6 5 3 15 6 21 4 1 20 2 25 5 12 5 5-1 7 1 2 3-1 5h-2l3 5 1 4v7l-3 8-7 9-10 9-15 9-14 7-10 4-6 29 5 1 6 7v8l-4 10-4 5-10 5-8 43-6 12-5 6-9 6-10 4-3 1 9 7 5 8 48 19 8 4 8 8 8 11 11 17 15 27 12 23 1 4h2l9 19 14-1h23l16 4 18 8 3-10 7-10 4-5-1-9-5-13-1-2-4-1-1-2v-8h-2l-2-2-3-1-3-4v-3l-3-1-4-7v-2l-5-2-1-4-5-5-14-11-14-9-3-2 1-3 11-1 8-1 12 1 9 4 14 7 8 6 6 10 10 11 10 18 7 21h13l11 4 13-4 12-1 3-8 1-14 3-6 5-9h2l2-4 7-9 10-8 9-6 9-4 6-2 5-4 14-4h15l3 1v2l3 1-5 5-11 7-12 9-11 9-8 8-9 13-7 12v11l-2 3h-4l-3 10 1 5 8 9 6 13 6-2 15-6 13-3h24l22 2 13 4-3 5-6 8h-2l-2 4h-2v2l-5 5-12 9-12 7-11 3-9 1-27 1-4 24-4 14-5 21-3 19 1 6 10 23 10 16 9 11 2 5 4 2 9 8 16 8 18 5 35 4h70l38-3 38-5 11-1h36l19 3 18 5 20 8 25 12 11 6 3 2h8l15-6 15-9 15-13 10-11 13-18 7-11 2 2 3 15 1 10v27l-1 7-7 3 7 1-2 7-7 2 4 2-2 6-4 2-5-1v2l4 1v2l-17 9-16 4h-8v3l7 14 5 16 2 20-1 17-3 19-3 5-5 2-5 1 10 1v6l-4 12-1 21v49l1 26 4 43 1 9v11l-11 28-11 29-7 21-13 52-8 41h-3l-10-9-9 1-15 5-2-1 10-30 5-28 13-65 5-26 4-19-1-7-12-20-1-3-7 5-1 7-2 19-4 13-3 3h-3l-4-8-4 5-14 20-9 13-12 19-12 23-11 23-11 24-13 34h-3l-10-12-21 3h-4l2-5 14-28 18-42 13-31 11-26 5-11 9-21-1-9-9-26-3-14-4 1-47 4-24 1h-42l-5-1h-17l-40-3-16-2-1 28-2 33h2v15l-1 5h-2l-1-3-3 22-1 11h7l1 2-9 1v71l-1 14-1 25-12-6-5-2-19 11h-2l2-24-14 2-33 1 13 4 15 4 1 2-13 3-20 2-43 1-26-4-25-6-19-5 5 5 13 11 3 4-4 1-20-1-20-4-18-5h-3l4 2v2h-5v2h-87l-19-7-1 5-1 2h-46l-2-20h-16l-20 8-15 5-1 7h-95l-20-2v-3l12-3h4l2-9 1-4-10-1-17-5-19-9-13-10-2-4 17-9 1-3h-39l-13-2 1-3 15-6 24-8h5v-2l-4-1 3-3 13-4 1-2-8-1-29-6 2-3 9-3 5-1-1 3 7-2v-4l2-1-2-4-8-8-5-7-18-2 3-3 8-4-6-11-7-16-1-4v-7l5 2 9 6 21-3 4-4 4-5-2-4-9-8h-30l-24-3-12-4-4-4-21-137-2-11-1-1v-14l4-16 3-10v-3h3l-1-5 7-10 5-4 4-4 11-8 2-2 5-1 1-3 4-2h4l4-16 2-10v-14l-3-27-4-63v-48l3-30v-11l-8-6v-7l5-21 5-16-1-1v-11l5-1 3-9 5-2 8-25 8-21 11-23 10-15 9-10 8-7 17-8 24-10 26-11 11-5 5-6 10-4 2-14-8-8-5-8-3-11v-18l3-30-7-2-7-8-2-6v-11l2-7-16-4-16-8-8-6-4-6-1-9 4-9 11-11 11-7 15-8 16-6 3-31 2-21 5-2 14-2 16-4zm127 58m2 1m5 4m1 1m-255 356-6 14-3 10 2 2-1 8-5 21-7 17-4 7v2l-13-1-5 17-4 19-1 15v65l2 34 2 15 3 5 4-1 2 6 3 10v5l-1 3 2 14 11 8 8 7 8 9h1l-1-30-2-35-1-26v-36l3-34 3-21 1-37 1-89zm287 26-11 5 3 10 7 14 2 2h10l13-4 13-5 13-7v-1l-22-2-12-4-8-4-5-4zm-73 21v29l1 55 11 114 6 74 4 57 2 4 7-13h1l-8 31v5l4 2 8-9v-2h2l6-7 8-6 2-1v-2l5-2 8-6-3 5v2h-2l-5 8v3l6 1 11-6 10-6 25-10 4-2 18-4 32-3-4-16-4-26-2-18v-50l4-35 5-29 6-28-5-10-4-9-4-15-6-34-2-6-6 2-21 11-26 11-18 5-6 1h-16l-10-4-4-3h-2l-1-3h-2v-2h-2l-2-4-9-16-6-14-6-18-4-1zm151 317-16 8-14 10-3 2v2l-4 2-16 16-7 9v3h2v2l6-2 16-9 17-8 30-11 8-3-2-10-3-10zm22 31-11 9-19 14-15 12 1 3 9-1 21-6 12-3 16-3-2-5-10-20zm22 41-6 3 2 5 10-2 1-3-2-3zm14 36-31 12-2 2v3l21-1 14-2 1-1v-13zm61 4-5 19v4l10-2 14-7 2-2-1-6-7-3-10-3zm22 21-11 21-3 4v2h21l-2-14-3-13zm-525 17-26 5 1 3 15 5 22 5 11 1v-7l-8-3-16-4 8-2-3-3zm532 24-35 14 1 2h39l-1-10-1-6zm5 34-33 7-17 3-2 3 11 3 43 7 3-1-2-22zm-2 36-4 2 4 1h7v-3zm2 12-18 6-41 10-1 2 5 1 33 1h26v-20zm-2 35-22 6-30 5-15 2 3 2 37 5 24 4h6l2-19v-5z" fill="#1D5A7A"/>
<path transform="translate(946,519)" d="m0 0h15l3 1v2l3 1-5 5-11 7-12 9-11 9-8 8-9 13-7 12v11l-2 3h-4l-3 10 1 5 8 9 6 13 6-2 15-6 13-3h24l22 2 13 4-3 5-6 8h-2l-2 4h-2v2l-5 5-12 9-12 7-11 3-9 1-27 1-4 24-4 14-5 21-3 19 1 6 10 23 10 16 9 11 2 5 4 2 9 8 16 8 18 5 35 4h70l38-3 38-5 11-1h36l19 3 18 5 20 8 25 12 11 6 3 2h8l15-6 15-9 15-13 10-11 13-18 7-11 2 2 3 15 1 10v27l-1 7-7 3 7 1-2 7-7 2 4 2-2 6-4 2-5-1v2l4 1v2l-17 9-16 4h-8v3l7 14 5 16 2 20-1 17-3 19-3 5-5 2-5 1 10 1v6l-4 12-1 21v49l1 26 4 43 1 9v11l-11 28-11 29-7 21-13 52-8 41h-3l-10-9-9 1-15 5-2-1 10-30 5-28 13-65 5-26 4-19-1-7-12-20-1-3-7 5-1 7-2 19-4 13-3 3h-3l-4-8-4 5-14 20-9 13-12 19-12 23-11 23-11 24-13 34h-3l-10-12-21 3h-4l2-5 14-28 18-42 13-31 11-26 5-11 9-21-1-9-9-26-3-14-4 1-47 4-24 1h-42l-5-1h-17l-40-3-16-2-1 28-2 33h2v15l-1 5h-2l-1-3-3 22-1 11h7l1 2-9 1v71l-1 14-1 25-12-6-5-2-19 11h-2l2-24-14 2-33 1 13 4 15 4 1 2-13 3-20 2-43 1-26-4-25-6-19-5 5 5 13 11 3 4-4 1-20-1-20-4-23-6-2-5-11-4-33-11-17-7-9-5-7-6-2-10v-17l2-35 7-62 4-31 1-4h-6l1-29 3-52 1-25 4 1 8-10h2l2-4 10-9 4-1v-2l11-8h2l-2 5-1 2h-2l-2 5-3 6 9-1 13-8 14-7 19-7 7-2 12-3 31-3-4-15-4-26-2-18v-50l4-35 5-29 6-28-5-10-2-5 2-4 3-5 6-3 5 1v10l4 5v2l4 2 12 5h15l10-4 8-7 1-3-4 2-7 6-11 4-3-1v-14l12-8 3-1v-2h2v-10l-3-2-7-1-8 4-5-2-3-2-8-1v-2l-2-1 2-1v-7l1-5 1-29-1-15-5-18-5-12-6-9-10-8-5-2v-2l-17-1 1-6 7-11 5-6-1-9-5-13-1-2-4-1-1-2v-8h-2l-2-2-3-1-3-4v-3l-3-1-4-7v-2l-5-2-1-4-5-5-14-11-14-9-3-2 1-3 11-1 8-1 12 1 9 4 14 7 8 6 6 10 10 11 10 18 7 21h13l11 4 13-4 12-1 3-8 1-14 3-6 5-9h2l2-4 7-9 10-8 9-6 9-4 6-2 5-4zm-153 481-16 8-14 10-3 2v2l-4 2-16 16-7 9v3h2v2l6-2 16-9 17-8 30-11 8-3-2-10-3-10zm22 31-11 9-19 14-15 12 1 3 9-1 21-6 12-3 16-3-2-5-10-20zm22 41-6 3 2 5 10-2 1-3-2-3zm14 36-31 12-2 2v3l21-1 14-2 1-1v-13zm61 4-5 19v4l10-2 14-7 2-2-1-6-7-3-10-3zm22 21-11 21-3 4v2h21l-2-14-3-13zm7 41-35 14 1 2h39l-1-10-1-6zm5 34-33 7-17 3-2 3 11 3 43 7 3-1-2-22zm-2 36-4 2 4 1h7v-3zm2 12-18 6-41 10-1 2 5 1 33 1h26v-20zm-2 35-22 6-30 5-15 2 3 2 37 5 24 4h6l2-19v-5z" fill="#EFD2B6"/>
<path transform="translate(781,995)" d="m0 0h23l-4 3-12 5-11 6-14 10-3 1v2l-8 7-11 11-7 9-1 3h2v2l24-13 20-9 28-10 4-1 2-4 5 8 1 3h2l3 4v2h2v2h2v2h2v2l4 2 8 6v2l5 2 9 6 24 11 24 9 13 3 7 3 7 28v4l-9-1-10-3-2 11-3 12 13-4 9-5 5-1v10l-10 19-4 6h21l2 9-1 5-10 5-24 9-1 1 38 1 2 1 1 7v10l-15 4-37 7v2l20 4 32 5 2 1v13l-6 1 3 2 4 2v5l-5 3-18 6-41 10 4 1 59 2v8l-1 6-15 5-23 5-19 3-12 2 37 5 24 4 5 2 1 4h10l18-1v2l5-1v29l-12-6-5-2-19 11h-2l2-24-14 2-33 1 13 4 15 4 1 2-13 3-20 2-43 1-26-4-25-6-19-5 5 5 13 11 3 4-4 1-20-1-20-4-23-6-2-5-11-4-33-11-17-7-9-5-7-6-2-10v-17l2-35 7-62 4-31 1-4h-6l1-29 3-52 1-25 4 1 8-10h2l2-4 10-9 4-1v-2l11-8h2l-2 5-1 2h-2l-2 5-3 6 9-1 13-8 14-7 19-7 7-2 12-3zm34 36-11 9-19 14-15 12 1 3 9-1 21-6 12-3 16-3-2-5-10-20zm22 41-6 3 2 5 10-2 1-3-2-3zm14 36-31 12-2 2v3l21-1 14-2 1-1v-13z" fill="#DDBD37"/>
<path transform="translate(432,508)" d="m0 0 3 3 4 9 3 3 12 27 12 31 10 30 6 25v29l-3 17-3 13-6 15-6 12-5 5-8 11-9 10h-2v2l-10 8-2-1v-29l1-89-1-1-8 20 2 4-1 8-5 21-7 17-5 9h-10l-3-1-4 17-4 19-1 15v65l2 34 2 15 2 4h4l5 11 1 10-1 3 2 13h-4l-6-1v2l4 2 13 7 7 7 5 4 7 9 2 13 1 18 5 2 4 2-1-7 3-1 1 8-4 3 2 1 2-2-1 7-5 31-2 13v19l3 77v9h-5l2 17-24-6-1-2 8-2-6-1-20 4h-6l1 2 15 5 22 5 11 2 1 1 5 59 2 35v32l-3 16-5 18-1-2-10-1-17-5-19-9-13-10-2-4 17-9 1-3h-39l-13-2 1-3 15-6 24-8h5v-2l-4-1 3-3 13-4 1-2-8-1-29-6 2-3 9-3 5-1-1 3 7-2v-4l2-1-2-4-8-8-5-7-18-2 3-3 8-4-6-11-7-16-1-4v-7l5 2 9 6 21-3 4-4 4-5-2-4-9-8h-30l-24-3-12-4-4-4-21-137-2-11-1-1v-14l4-16 3-10v-3h3l-1-5 7-10 5-4 4-4 11-8 2-2 5-1 1-3 4-2h4l4-16 2-10v-14l-3-27-4-63v-48l3-30v-11l-8-6v-7l5-21 5-16-1-1v-11l5-1 3-9 5-2 8-25 8-21 11-23 10-15 9-10 8-7 17-8z" fill="#8F9799"/>
<path transform="translate(548,216)" d="m0 0h32l17 3 6 5 3 15 6 21 4 1 20 2 25 5 12 5 5-1 7 1 2 3-1 5h-2l3 5 1 4v7l-3 8-7 9-10 9-15 9-14 7-10 4-6 29 5 1 6 7v8l-4 10-4 5-10 5-8 43-6 12-5 6-9 6-10 4-3 1 9 7 5 8 17 7 1 4-3 28-3 23-5 44-4 29h-86l-6-18-3-12-12-36-7-19-11-26-8-16v-3h-2l1-3 24-10 6-7 10-4 2-14-8-8-5-8-3-11v-18l3-30-7-2-7-8-2-6v-11l2-7-16-4-16-8-8-6-4-6-1-9 4-9 11-11 11-7 15-8 16-6 3-31 2-21 5-2 14-2 16-4z" fill="#B31E17"/>
<path transform="translate(631,513)" d="m0 0 9 2 8 6 9 10 10 15 10 17 13 23 8 16 2 6h2l9 19 14-1h23l16 4 18 8v-2h13l5 1v2l5 1 10 8 6 8 5 11 4 13 2 8 1 24-1 20-1 5v8l-1 3h8l6 4 12-4 7 2 2 2v8l-1 2h-2v2l-14 9v14l9-2 8-5 5-5 3 1-3 5-7 6-10 4h-15l-12-5-5-5-4-5v-10l-6 1-5 3-2 8-3-2-5-18-6-34-1-6-32 16-21 9-18 5-6 1h-16l-10-4-6-4-3-3v-2h-2l-10-16-7-15-7-21h-7l-2-1v75l-2-2-10-32-6-24-4-20-3-25v-24l1-17 3-30 3-29 3-18 3-22zm84 149-11 5 3 10 7 14 2 2h10l13-4 13-5 13-7v-1l-22-2-12-4-8-4-5-4z" fill="#D7B897"/>
<path transform="translate(946,519)" d="m0 0h15l3 1v2l3 1-5 5-11 7-12 9-11 9-8 8-9 13-7 12v11l-2 3h-4l-3 10 1 5 8 9 6 13 6-2 15-6 13-3h24l22 2 13 4-3 5-6 8h-2l-2 4h-2v2l-5 5-12 9-12 7-11 3-9 1-27 1-4 24-4 14-5 21-4 24-5 16-2 5h-2l-1 5-6 10-9 10h-2v2l-10 5 2 11 1 6v21l-3 16-6 15-3 3-1 3-8 7-3-1-2-10 1-8 1-10-2 6h-3l-2-16v-16l3-16 2-10-11-6-9-8-4-6v-2h-2l-5-10-2-5 2-4 3-5 6-3 5 1v10l4 5v2l4 2 12 5h15l10-4 8-7 1-3-4 2-7 6-11 4-3-1v-14l12-8 3-1v-2h2v-10l-3-2-7-1-8 4-5-2-3-2-8-1v-2l-2-1 2-1v-7l1-5 1-29-1-15-5-18-5-12-6-9-10-8-5-2v-2l-17-1 1-6 7-11 5-6-1-9-5-13-1-2-4-1-1-2v-8h-2l-2-2-3-1-3-4v-3l-3-1-4-7v-2l-5-2-1-4-5-5-14-11-14-9-3-2 1-3 11-1 8-1 12 1 9 4 14 7 8 6 6 10 10 11 10 18 7 21h13l11 4 13-4 12-1 3-8 1-14 3-6 5-9h2l2-4 7-9 10-8 9-6 9-4 6-2 5-4z" fill="#EFD2B6"/>
<path transform="translate(527,914)" d="m0 0h37l2 6 2 21 1 3 2 20 5 36 2 13 5 25 2 9-1 17-2 81h-7l1 6 6 129 1 24-3 23-1 1-16 1-20 8-16 5-2-6-6-7-5-5-6-8-4-8-1-4v-16l4-51 7-65 3-26-5-1v-11l5-51 2-12 1-16 1-3 2-47 1-37 1-10 1-36z" fill="#DDBD37"/>
<path transform="translate(548,216)" d="m0 0h32l17 3 6 5 3 15 6 21 4 1 20 2 25 5 12 5 5-1 7 1 2 3-1 5h-2l3 5 1 4v7l-3 8-7 9-10 9-15 9-14 7-11 4v-13l6-8 4-11 1-5 1-16-16 4-9-1-12-7-10-7-13-5-6-1h-14l-14 3-12 5-13 3-13 8-7 8-4 6-5 16-1 6-1 21 3 1-1 11 4-3h2v-9l2-2-2-5 3-2 3 3 5-1 15-14 9-11 4-9 5 5 1 3 6-1 2 3-2 3 5 2 15 8 15 5 4 1h22l7-1 2 8 1 8v20l-4 17-6 17-5 9-5 5-11-2-17-8-4 1h-8l-8-4h-30l-11-3-5-4-3-8-1-6h-2l-5-6v-2h-2l-2-6h-2v12l3 1 3-2 2 2-1 4-7 1-2-1v-2l-7-2-7-8-2-6v-11l2-7-16-4-16-8-8-6-4-6-1-9 4-9 11-11 11-7 15-8 16-6 3-31 2-21 5-2 14-2 16-4z" fill="#C18721"/>
<path transform="translate(432,508)" d="m0 0 3 3 4 9 3 3 12 27 12 31 10 30 6 25v29l-3 17-3 13-6 15-6 12-5 5-8 11-9 10h-2v2l-10 8-2-1v-29l1-89-1-1-8 20 2 4-1 8-5 21-7 17-5 9h-10l-20-6-24-10-10-5-10-6-1-1v-7l5-21 5-16-1-1v-11l5-1 3-9 5-2 8-25 8-21 11-23 10-15 9-10 8-7 17-8z" fill="#D72A21"/>
<path transform="translate(663,1232)" d="m0 0 25 5 14 4 17 5 21 7 1 4 8-2 27 7 16 3 17 3 23 3 6 1-1 8-6 20-3 9 30 8 2 1 2-10 9-31 3-2h50l26 1v8l-1 6-15 5-23 5-19 3-12 2 37 5 24 4 5 2 1 4h10l18-1v2l5-1v29l-12-6-5-2-19 11h-2l2-24-14 2-33 1 13 4 15 4 1 2-13 3-20 2-43 1-26-4-25-6-19-5 5 5 13 11 3 4-4 1-20-1-20-4-23-6-2-5-11-4-33-11-17-7-9-5-7-6-2-10v-17l2-35 1-7 2 1 1-3z" fill="#CFAC1D"/>
<path transform="translate(1233,1072)" d="m0 0h2v3h-2l-1 12h-10l-5 3-2 4-1 9h2l7 9 4 5 5 1 22-4 4 1 6 10 5 10 5 9-1 5-5 5-1 18-4 16-3 5-4 1-4-8-4 5-14 20-9 13-12 19-12 23-11 23-11 24-13 34h-3l-10-12-21 3h-4l2-5 14-28 18-42 13-31 11-26 5-11 9-21-1-9-9-26-3-14-4 1-47 4-24 1h-42l-5-1h-17l-40-3-16-3v-13l1-16h10l13 1 43 1 45-1 25-2 23-3 32-6 48-12z" fill="#D7B997"/>
<path transform="translate(660,1136)" d="m0 0h1v9h6l-2 19-6 50-3 31-2 32v17l2 10 9 7 18 8 20 7 27 9 4 4 2 4 4 2v2h-5v2h-87l-19-7-1 5-1 2h-46l-2-22 3-23-1-24-6-129v-6h7v-2l5 1h72z" fill="#544541"/>
<path transform="translate(812,1017)" d="m0 0 3 3 3 5 1 3h2l3 4v2h2v2h2v2h2v2l4 2 8 6v2l5 2 9 6 24 11 24 9 13 3 7 3 7 28v4l-9-1-10-3-2 11-3 12 13-4 9-5 5-1v10l-10 19-4 6h21l2 9-1 5-10 5-24 9-1 1 38 1 2 1 1 7v10l-15 4-37 7v2l20 4 32 5 2 1v13l-6 1 3 2 4 2v5l-5 3-18 6-41 10 4 2-17 1-2 1-9 31-3 10-34-8 2-1 1-7 4-11 9-34 4-17 3-15 4-38 1-24v-23l1-17-2-2v-14l2-2-1-20-4-5h-15v-1l8-2-1-4-3-2-2-5-6-9-4-4-8-15-6-16-2-1z" fill="#D7B997"/>
<path transform="translate(337,694)" d="m0 0 4 2 25 11 24 8 1 3-6 24-2 10-1 15v65l2 34 2 15 2 4h4l5 11 1 10-1 3 2 13h-4l-6-1v2l4 2 13 7 7 7 5 4 7 9 2 13v17l-24-5-19-2h-44l-17 2-26 5-9 3v-9l3-10 9-16 5-5 3-5 7-6h2v-2l16-9v-2l-9 3-3 2h-3v2l-8 6-4 4h-2v2h-2l-1 3h-2l-2 5-3 4-2-4 7-10 5-4 4-4 11-8 2-2 5-1 1-3 4-2h4l4-16 2-10v-14l-3-27-4-63v-48l3-30z" fill="#FCB187"/>
<path transform="translate(560,272)" d="m0 0h14l12 3 12 6 8 6 9 5 9 1 12-3h4v16l-4 14-5 8h-2l-1 20-5 24 5 1 6 7v8l-4 10-4 5-10 5-8 43-6 12-5 6-9 6-10 4h-5v2h-14l-17-2-19-5-13-6-11-7-7-7-5-8-3-11v-18l2-23 1-5h7l2-1-1-4-4 2-3-2 1-12h2l2 6h2l5 6v2h2l4 12 5 5 11 3h30l8 4h8l4-1 20 9 8 1 3-1 2-4 6-13 7-23 1-6v-20l-2-16-7 2h-22l-16-5-16-8-7-4 1-4-3-1h-4l-5-7-6 11-15 16-10 8-4-1-3-2-1 3 2 4-3 1v9l-7 4 1-12-2-1v-21l4-17 4-8 7-9 7-6 12-6 12-3 13-5z" fill="#5F3713"/>
<path transform="translate(435,1129)" d="m0 0h1l1 16h80l1 2-8 70-5 55-1 16v16l3 8 6 10 4 4v2l4 2 6 7v12h-95l-20-2v-3l12-3h4l2-9 7-24 2-12v-32l-3-48-5-56-1-15h5z" fill="#544540"/>
<path transform="translate(944,626)" d="m0 0h24l22 2 13 4-3 5-6 8h-2l-2 4h-2v2l-5 5-12 9-12 7-11 3-9 1-27 1-4 24-4 14-5 21-4 24-5 16-2 5h-2l-1 5-6 10-9 10h-2v2l-10 5 2 11 1 6v21l-3 16-6 15-3 3-1 3-8 7-3-1-2-10 1-8 1-10-2 6h-3l-2-16v-16l3-16 2-10-11-6-9-8-4-6v-2h-2l-5-10-2-5 2-4 3-5 6-3 5 1v10l4 5v2l4 2 12 5h15l10-4 8-7 1-3-4 2-7 6-11 4-3-1v-14l12-8 3-1v-2h2v-10l-3-2-5-1 4-1v-10l1-1h7v4h-5v4l8-1 1-8-2-3h-10v-4h4l-1-4-4-1-1-8 4-1v-3l-4-1 1-17 1-10 4-14 8-16h2l2-6 7-6 10-5 3-1h12l4 1 16-7z" fill="#D6B896"/>
<path transform="translate(631,513)" d="m0 0 9 2 8 6 9 10 10 15 10 17 13 23 8 16 2 6h2l8 16v4l-21 4 8 11 5 5v2h2l3 3v2l4 2 4 3v3l-19 8-24 8-16 4-12 1-2-1v75l-2-2-10-32-6-24-4-20-3-25v-24l1-17 3-30 3-29 3-18 3-22z" fill="#D32B21"/>
<path transform="translate(377,1155)" d="m0 0h6l1 2 15 5 22 5 11 2 1 1 5 59 2 35v32l-3 16-5 18-1-2-10-1-17-5-19-9-13-10-2-4 17-9 1-3h-39l-13-2 1-3 15-6 24-8h5v-2l-4-1 3-3 13-4 1-2-8-1-29-6 2-3 9-3 5-1-1 3 7-2v-4l2-1-2-4-8-8-5-7-18-2 3-3 8-4-6-11-7-16-1-4v-7l5 2 9 6 21-3 4-4 4-5-2-4-9-8z" fill="#DDBD38"/>
<path transform="translate(537,308)" d="m0 0 5 5 1 3 6-1 2 3-2 3 5 2 15 8 15 5 4 1h22l7-1 2 8 1 8v20l-4 17-6 17-5 9-5 5-11-2-17-8-4 1h-8l-8-4h-30l-11-3-5-4-3-8-1-6h-2l-5-6v-2h-2l-2-6h-2v12l3 1 3-2 2 2-1 4-7 1-2-1v-2l-7-2-7-8-2-6v-11l2-7 7-5h10l3 2-1 11 4-3h2v-9l2-2-2-5 3-2 3 3 5-1 15-14 9-11z" fill="#F7AF85"/>
<path transform="translate(455,732)" d="m0 0v3l-8 10-7 7 2 6-4 52h2v-2l8-6 1-2h2v-2l7-6 5-5 8-9 1-2h2l2-4 2-2h24l1 4v92l-1 1h-65l2 69v25l1 13h-2l-3-7-6-12v-2h-2v2h-2l-3-5-4-5v-2l-3-1v-2l-4-2-8-7-11-6-4-4v-1l7 1 13 8 10 9 7 8-1-29-2-35-1-26v-36l3-34 4-29 5-2 5-5h2v-2l5-4 9-11z" fill="#17456B"/>
<path transform="translate(1233,1072)" d="m0 0h2v3h-2l-1 12h-10l-5 3-2 4-1 9h2l7 9 4 5 2 2-21 4-6-1v2h-5l-2-4-9 1-3 5-47 4-24 1h-42l-5-1h-17l-40-3-16-3v-13l1-16h10l13 1 43 1 45-1 25-2 23-3 32-6 48-12z" fill="#D7B997"/>
<path transform="translate(527,914)" d="m0 0h37l2 6 2 21 1 3 2 20 5 36 2 13 5 25 2 9-1 17-1 19-4-2-13-9-16-9-7-4v-2l-7-1-14-5v-21l2-62 1-10 1-36z" fill="#FDFCFC"/>
<path transform="translate(701,668)" d="m0 0 4 1 6 15 5 8h10l13-4 13-5 10-5 5-2 1-1 10-1 3 2 5 27 3 8v6h-3v2l-16 9-24 11-17 6-17 4h-16l-10-4-6-4-3-3v-2h-2l-10-16-7-15-7-21v-1l24-6 24-8z" fill="#FCB187"/>
<path transform="translate(874,1275)" d="m0 0h50l26 1v8l-1 6-15 5-23 5-19 3-12 2 37 5 24 4 5 2 1 4h10l18-1v2l5-1v29l-12-6-5-2-19 11h-2l2-24-14 2-33 1 13 4 15 4 1 2-13 3-20 2-43 1-10-11v-2l-8 1-18 3 3-10 9-18 9 1 23 6 2 1 2-10 9-31z" fill="#CFAC1F"/>
<path transform="translate(933,1125)" d="m0 0h1v10l-10 19-4 6h21l2 9-1 5-10 5-24 9-1 1 38 1 2 1 1 7v10l-15 4-37 7v2l20 4 32 5 2 1v13l-6 1 3 2 4 2v5l-5 3-18 6-41 10 4 2-19 1 2-12 6-33 3-12 7-25 4-15 5-18 5-21 2-4 11-4 12-6z" fill="#DEBE38"/>
<path transform="translate(331,920)" d="m0 0 3 1-2 4-13 7h-2v2l-10 8-3 5-4 5-6 10-3 8-2 6-1 9 9-4 31-6 12-1h44l11 2v1l-6 1h-52l-18 4-23 4-4 2h-3l-1 6 4 4 5 2 12 2 17 3 2 1 11 1 45 1-1 3h-39l-7-1v-2l-18 2h-2l1 30 3 24 6 22 4 10 5 12 2 2 3 7 3 6 3 3 4 6 3 2 3 5 3 2v3h3v2l5 2 5 3v2l5 1-2 2h-29l-24-3-12-4-4-4-21-137-2-11-1-1v-14l4-16 3-10v-3l4-1 5-9 3-3h2v-2h2l1-3 9-7h2v-2z" fill="#858C8E"/>
<path transform="translate(514,1037)" d="m0 0 4 2 3 1v15l-1 16-2 12-6 62-49 1-26-1-2-9h-1v-23l1 2h2l1 2 4-1 1-2h-2l-3-4 1-3 6-4 1-2 1-10 5 2 7-1 4-4 1-2-1-11h2v-2l7-2 1 4-5 1v4h7v-2h2v-7l-2-3h-10v-4h4l-1-7 3 1 8 10 2 3 4-1-2-4-7-8 4-2 5 4 1 2 2-1 6 1 3-2-1-3-5 1-5-5v-2h-2l-1-3 3-1v-5l5 3 11 14 2 2h3l-1-4-3-5 8-5z" fill="#1D597A"/>
<path transform="translate(501,653)" d="m0 0 4 2 7 5v2l4 2 22 18v2l4 1v2l4 2 5-1 15-12h2v-2l6-4h2v-2l8-6 10-8h4v75l-5 1h-90l-2-1 1-5v-15l-1-2z" fill="#17456B"/>
<path transform="translate(479,488)" d="m0 0 3 1 1 15 4 16 4 10 8 16 3 4v2h2l3 5 5 6v2h2v-13l4-10 3-3 7-1 10 6 7 11 4 10v59l-2 5h-40l-2-6-5-16-3-7-12-36-7-19-11-26-8-16v-3h-2l1-3z" fill="#D52A21"/>
<path transform="translate(349,633)" d="m0 0 1 3 9 1 22 7 19 7 12 5 5 2h3l2 4-1 8-5 21-7 17-5 9h-10l-20-6-24-10-10-5-10-6-1-1v-7l5-21 5-16 5-9h4z" fill="#B41D18"/>
<path transform="translate(332,924)" d="m0 0h2l2 7 6 5 12 3 31 1v-2h5v-13l5 1 11 6 7 7 5 4 7 9 2 13v17l-24-5-19-2h-44l-17 2-26 5-9 3v-9l3-10 9-16 5-5 3-5 7-6h2v-2z" fill="#FDFDFC"/>
<path transform="translate(548,216)" d="m0 0h32l17 3 6 5 3 15 6 22-33 1-38 4-16 3h-5v-3h-2v-2h-2l-4-6v-2h-2l-7-14-3-10-2-2h2v-2l-7 4h-2l-1 2v-7l5-2 14-2 16-4z" fill="#DEBE38"/>
<path transform="translate(600,770)" d="m0 0h24l7 10 7 12 2 6h2l1 7h2l3 3 4 41v18h-52v-59-2z" fill="#17456B"/>
<path transform="translate(578,1256)" d="m0 0h2l1 2 2 38-1 16-2 15-1 1-16 1-20 8-16 5-2-6-6-7-5-5-6-8-4-8 1-19 14-5 9-4 4-1h12l19 3h4l-10-5-7-4v-2h2v-2l9-4 12-6z" fill="#CFAC1E"/>
<path transform="translate(663,1232)" d="m0 0 25 5 14 4 17 5 21 7 1 4 8-2 27 7 16 3 17 3 23 3 6 1-1 8-6 20-4 1-17-9-13-4-17-3-10-1 3-2 51-8 2-1-30-3-19-1h-65l-32 8-24 8h-1l-1 9h-1v-17l2-35 1-7 2 1 1-3z" fill="#CEAB1D"/>
<path transform="translate(1382,802)" d="m0 0 2 2 3 15 1 10v27l-1 7-7 3 7 1-2 7-7 2 4 2-2 6-4 2-5-1v2l4 1v2l-17 9-16 4-10-1-6-7-7-8-8-7v-2l-5-2-4-4 20-8 15-9 15-13 10-11 13-18z" fill="#D7B997"/>
<path transform="translate(699,607)" d="m0 0 3 1 8 16v4l-21 4 8 11 5 5v2h2l3 3v2l4 2 4 3v3l-19 8-24 8-16 4-12 1-2-9v-49l14-6 11-4 8-3h5v-2l12-3z" fill="#B41D17"/>
<path transform="translate(590,496)" d="m0 0 9 3 7 3 1 4-3 28-3 23-5 44-3 24h-2v4h-32l-1-1v-61l6-10 9-14 3-2 7 1 9 8v2h2l1 4h2l-1-16-1-4-2-25-3-13z" fill="#D32B21"/>
<path transform="translate(1254,1114)" d="m0 0 4 1 6 10 5 10 5 9-1 5-5 5-1 18-4 16-3 5-4 1-4-8-3-10-1-15h-12l-2 10-5 14-5 7-4 1-3-5-1-4v-30l-11-9-8-7 1-4 3-5 1-7 11-1 18-3z" fill="#CA787F"/>
<path transform="translate(712,1268)" d="m0 0h65l29 2 20 2 1 2-21 4-33 5 24 4 15 5 16 8h2l-2 9-2-1 1-3-12-1-28-4-43-8-14-5-2-4-19 2-23 5-6 1h-24l-1 7h-1v-14l10-3 27-8z" fill="#DEBE37"/>
<path transform="translate(501,462)" d="m0 0 10 6 15 6 16 4 19 2h10l-1 21-4 13-6 19-5 23-2 2-6-16-8-13-1-3-4-2-10-8-7-8-8-9-7-11-4-12 2-13z" fill="#FB8C6B"/>
<path transform="translate(946,519)" d="m0 0h15l3 1v2l3 1-5 5-11 7-12 9-11 9-8 8-9 13-7 12v11l-2 3h-4l-4 13h-2l-5-5-9-6-7-4 2-9 1-14 3-6 5-9h2l2-4 7-9 10-8 9-6 9-4 6-2 5-4z" fill="#AE9077"/>
<path transform="translate(336,979)" d="m0 0h51l17 2 6 2-2 13 9 3 4 2-5 2-16 3-10 1h-62l-9-2-14-3-11-2-5-3-2-5 2-4 11-4 25-4z" fill="#D6B897"/>
<path transform="translate(744,520)" d="m0 0 13 1 9 4 14 7 8 6 6 10 10 11 10 18 6 17v5l-14 7-3 3h-2v2l-3 1-2-3-3-11-4-9-4-1-1-2v-8h-2l-2-2-3-1-3-4v-3l-3-1-4-7v-2l-5-2-1-4-5-5-14-11-14-9-3-2 1-3 11-1z" fill="#AF9076"/>
<path transform="translate(672,678)" d="m0 0h2l7 21 4 10 6 12 4 4 9 4 5 1h15l18-3 10-3 8-4 10-3 10-5 7-1 1 6h-2v2l-16 9-24 11-17 6-17 4h-16l-10-4-6-4-3-3v-2h-2l-10-16-7-15-7-21v-1z" fill="#FB8E6C"/>
<path transform="translate(577,1146)" d="m0 0 5 2 3 16 2 12 5 16 3 24 3 16 3 24v24l-1 8h-2l-1 4-2 4-5 1v3l-5 2-1 3v-9h-2l-3-61-3-63v-25z" fill="#423A38"/>
<path transform="translate(573,976)" d="m0 0h11l1 4-5 1v5h6l-2 1 5 32 3 24 1 22 3 23 6 24 4 11 4 13 2 5v3l-4 1h-21l-5-2v-31l1-48 1-17-5-23-3-21-3-17z" fill="#19466B"/>
<path transform="translate(430,1048)" d="m0 0h1l1 11 3 77v9h-5l2 17-24-6-1-2 8-2-6-1-3-1 7-3 2-2 3-20v-3l-5-1v9l-5 7-8 1-6-3-3-4-1-7 3-5 3-3 3-1-2-4-5-7 5-2v2h2l7 9 2 1 2-8 5-5 7-1 2-12 2-16 3-16z" fill="#D8BA98"/>
<path transform="translate(435,1129)" d="m0 0h1l1 16h26v1l-26 1v4l1 1v10h2l1 9 2 3 4 21 1 2 2 16 2 11 2 16v40l-3 16-4 10-7 11h-2l-1-4 3-12v-44l-3-44-1-9-1-1-5-51v-7h5z" fill="#3F3A3B"/>
<path transform="translate(337,694)" d="m0 0 4 2 18 8 1 2h-2l-1 5-5 14-5 19-2 8-1 16v60l1 59-2 5h-1l-2-27-2-18-4-63v-48l3-30z" fill="#FB906E"/>
<path transform="translate(731,640)" d="m0 0h17l18 6 13 7v17h-28l-12-3-12-6-7-5v-2l-4-2-4-4v-2h-2l1-3 9-2z" fill="#C9787E"/>
<path transform="translate(974,627)" d="m0 0 16 1 13 4-3 5-6 8h-2l-2 4h-2v2l-5 5-12 9-12 7-11 3-9 1h-18l3-7 1-2 5-2h6l5 3 4 1-5-6-5-3-1-8 3-2v2h2v2l5-2 2 1-1 7 4 5v2l9-3-6-4-2-4v-8l4-5 4-2 8 1 4 3 3 8 3-1-1-3 1-2 3 1h-2v2l5-2 1-2h2l-2-7-1-1h-10l-1-4 5-1v-5z" fill="#DABC9A"/>
<path transform="translate(344,993)" d="m0 0h32l21 2 20 4 4 2-5 2-16 3-10 1h-62l-9-2-14-3-3-2 11-3 21-3z" fill="#FDFCFC"/>
<path transform="translate(572,901)" d="m0 0 3 1 3 26 2 24 1 4v7l3 1-10 2-1 2h-2l-2-11-1-13-1-3-2-21v-7h-39v-7l38-3z" fill="#19466C"/>
<path transform="translate(497,228)" d="m0 0h3l1 4 5 15 4 7v2h2l4 6v2h2v2h2v4l-19 5-13 4h-2v-9l3-36h2v-2z" fill="#CFAC1C"/>
<path transform="translate(854,748)" d="m0 0 9 2 2 2v8l-1 2h-2v2l-14 9v14l9-2 8-5 5-5 3 1-3 5-7 6-10 4h-15l-12-5-5-5-3-5 5-1 2 4 6 5 13 4v-16l-6-2-4-2v-2l-4-2-4-3v-10l4-2h9l5 3 9-3z" fill="#5F3713"/>
<path transform="translate(447,1091)" d="m0 0 7 3-3 1 4 14 5 24 2 7v5h-25l-2-9h-1v-23l1 2h2l1 2 4-1 1-2h-2l-3-4 1-3 6-4 1-2z" fill="#17466B"/>
<path transform="translate(826,1310)" d="m0 0 9 1 23 6 2 1-3 11-6 18-5-4-6-7v-2l-8 1-18 3 3-10 8-16z" fill="#5F3713"/>
<path transform="translate(1142,1311)" d="m0 0 7 1 25 7 1 4-9 24h-3l-10-12-21 3h-4l2-5 8-16z" fill="#613A17"/>
<path transform="translate(1263,1316)" d="m0 0 24 3 9 2v7l-4 21h-3l-10-9-9 1-15 5-2-1 9-28z" fill="#623B17"/>
<path transform="translate(969,1319)" d="m0 0h6v2l5-1v29l-12-6-5-2-19 11h-2l2-21 2-10z" fill="#603916"/>
<path transform="translate(944,640)" d="m0 0h20l7 2 8 1v3h-3v6l-4 2-4-10-5-2-7 1-5 5v8l3 5 5 2-1 2-5 2h-4l-5-7 1-4 1-3-7 1v-2h-4l1 8 6 4v2l3 1v2l-5-1-4-2h-6l-5 1-1 3h-12v-17l16-8 11-4z" fill="#C9787E"/>
<path transform="translate(430,634)" d="m0 0h1l2 26 1 4v2l2 18 4 39 2 25h-2v2l-10 8-2-1v-29l1-73z" fill="#B2211B"/>
<path transform="translate(445,1339)" d="m0 0 80 1 2 2v7h-95v-2h-2l-1-7h15z" fill="#484445"/>
<path transform="translate(331,920)" d="m0 0 3 1-2 4-13 7h-2v2l-10 8-3 5-4 5-6 10-3 8-2 6-1 9 9-4 31-6 12-1h44l11 2v1l-6 1h-52l-18 4-23 4-4 2h-3l-1 6 4 5-5 1-4-4v-14l4-16 3-10v-3l4-1 5-9 3-3h2v-2h2l1-3 9-7h2v-2z" fill="#667F89"/>
<path transform="translate(395,976)" d="m0 0h8l19 4 4 1 1-5h1v7l5 2 4 2-1-7 3-1 1 8-4 3 2 1-1 6-1 4-13 5-12 2-9-1 2-1v-2l15-3-10-3-3-3h2l1-12-11-2-11-1h-59v-1l9-2h52z" fill="#919799"/>
<path transform="translate(438 1e3)" d="m0 0h2l1 7 1 27 2 18 3 17-1 4-2 5v9l-10-1h-1l-1-6-1-22v-19l5-32 2-4z" fill="#17466C"/>
<path transform="translate(340,894)" d="m0 0 2 2v20l2 8 3 5 12 4h29l1 4-4 1v2h-31l-12-3-7-6-2-10-9 3-3 2h-3v2l-8 6-4 4h-2v2h-2l-1 3h-2l-2 5-3 4-2-4 7-10 5-4 4-4 11-8 2-2 5-1 1-3 4-2h4l4-16z" fill="#F89574"/>
<path transform="translate(452,1071)" d="m0 0 7 1 5 5 1 9-3 5-6 3-6-1-2-1-1 9-4 5-4 2 2 6h2l-2 4-4-1v-2l-4 1-1-35h1l1 5h6l4 2-1-2v-7l6-7z" fill="#8D9598"/>
<path transform="translate(480,348)" d="m0 0h10l3 2-2 10-1 3-1 21 3 1 3-2 2 2-1 4-7 1-2-1v-2l-7-2-7-8-2-6v-11l2-7z" fill="#F9B187"/>
<path transform="translate(436,1306)" d="m0 0h2l-6 24-1-2-10-1-17-5-19-9-1-2 24-2 26-2z" fill="#CFAC1F"/>
<path transform="translate(895,677)" d="m0 0 6 5v2h2l1 2 1-2h2l2-4h2l-1 8-3 16-6 22-2 1-4-4v-2h-2l-7-9-1-9 5-8h9l-3-10-2-3z" fill="#EDD0B4"/>
<path transform="translate(419,1125)" d="m0 0h15l1 11v9h-5l2 17-24-6-1-2 8-2-6-1-3-1 7-3 2-2 3-19z" fill="#DCBC3E"/>
<path transform="translate(1206,1100)" d="m0 0h5v12l-1 5 4-2 2-5 4 2-3 8-9 3-6-1v2h-5l-2-4-9 1-3 5h-4l1-5 2-3h2v-2l3-1-1-4-5-7 5-2 7 8v2h2l2 3 2-10 4-4z" fill="#EFD2B6"/>
<path transform="translate(499,1029)" d="m0 0 8 1 5 5 1 2v7l-3 5-6 4 4 5-1 4-4-1-8-9-5-7v-7l3-6z" fill="#8D9598"/>
<path transform="translate(1235,1091)" d="m0 0 12 2 2 6 8 14-3 2-23 4-2-2 1-4-3-3 1-3 4-1v-2h2l1-11z" fill="#D7B997"/>
<path transform="translate(529,419)" d="m0 0 21 5 8 2 27 3-2 5-2 4h-10l-17-3-14-5-7-4v-2l-4-1z" fill="#F6EFEB"/>
<path transform="translate(519,1072)" d="m0 0 4 2 9 9 11 14 4 5 7 10-1 3-12-10-13-8-7-4-3-3v-13z" fill="#FAF3EC"/>
<path transform="translate(532,427)" d="m0 0 7 1 9 4 15 4 10 2 5 2-3 4h-3v2l-4 2h-11l-12-5-8-7-5-7z" fill="#AE1E17"/>
<path transform="translate(824,753)" d="m0 0h2v8l4 2 4 3v2l4 1 6 3v16l-7-1-9-4-1-3-4-2 1-3 2 3h2l-2-5h-2l-4-5v-8z" fill="#EFD2B5"/>
<path transform="translate(340,974)" d="m0 0h44l11 2v1l-6 1h-52l-18 4-23 4-4 2h-3v2l-4 2-1-1v-5h6v-2l7-3 31-6z" fill="#5E7B88"/>
<path transform="translate(936,650)" d="m0 0 1 2h2v2l5-2 2 1-1 7 4 5v2l8-1-1 5-3 3-14 2h-18l3-7 1-2 5-2h6l5 3 4 1-5-6-5-3-1-8z" fill="#E0C3A3"/>
<path transform="translate(622,370)" d="m0 0 1 2 5 1 6 7v8l-4 10-4 5-7 4h-3l1-11z" fill="#F5B38C"/>
<path transform="translate(946,519)" d="m0 0h15l3 1v2l2 1-22 2-15 4-19 9-14 12h-2l-2 4-5 8-8 14-4 11h-1v-12l3-6 5-9h2l2-4 7-9 10-8 9-6 9-4 6-2 5-4z" fill="#F8F1E9"/>
<path transform="translate(640,1343)" d="m0 0h16l24 1 8 1 33 1v-1h7l1-2 4 1 2 5h-87l-8-3z" fill="#575150"/>
<path transform="translate(561,304)" d="m0 0h8l4 2 3 5v7l-4 6-4 2-8-1-5-5-1-2 1-9 4-4z" fill="#AE8F75"/>
<path transform="translate(854,748)" d="m0 0 6 1-2 5-5 4-5 1-6-2 1 5-3 9-6-3v-2l-4-2-4-3v-10l4-2h9l5 3 9-3z" fill="#A18165"/>
<path transform="translate(512,343)" d="m0 0h8v2l-5 2v2h-2l1 5 4 6 3 3v2l7-4h9l6 3 5 7v5h-6l1-7-1-4-8-2v4l-5 1v7l-5-1-6-4-6-9-3-3v-2h-2l-2-3-4-2h2v-2l-2-1 2-2h4v2h3z" fill="#EED1B5"/>
<path transform="translate(583,1340)" d="m0 0h41l4 4-1 5-43-1-2-1v-6z" fill="#413B3B"/>
<path transform="translate(500,1013)" d="m0 0 4 2 1 3h2l3 3 2-5 6-1 5 2v13l-1 22h-1l-1-11-6-5-9-11-8-9z" fill="#919798"/>
<path transform="translate(432,1081)" d="m0 0h1l1 5h6l7 2v13l-4 5-4 2 2 6h2l-2 4-4-1v-2l-4 1z" fill="#8F9393"/>
<path transform="translate(813,765)" d="m0 0 5 1v10l4 5 1 3-3 3-8 1-6-2-4-7 3-9 3-3z" fill="#EDD0B4"/>
<path transform="translate(430,1048)" d="m0 0h1l1 11 1 42-8-1-2-1 1-11 2-16 3-16z" fill="#FAF9F7"/>
<path transform="translate(435,1129)" d="m0 0h1l1 16h26v1l-26 1v4l1 1v10h2l1 7-1 3h-2l-1 6h-2v14h-1l-4-40v-7h5z" fill="#473B35"/>
<path transform="translate(969,1319)" d="m0 0h2v9l-4 5-4 2h-6l-6-4-2-4v-6z" fill="#AE8F75"/>
<path transform="translate(536,338)" d="m0 0h14l3 6-1 5-9-2h-15l-10 4-4-1 1-3 5-2v-2l10-4z" fill="#AE8F75"/>
<path transform="translate(499,357)" d="m0 0h7l5 5 2 6-2 6-5 5h-3l4 6-1 4h-3l-1-1-3-23z" fill="#EFD2B6"/>
<path transform="translate(804,677)" d="m0 0h8l6 3v2h2l3 8-1 4-4 1-4-9-3-2h-6l-5 4-2 6-4 1-1-1v-7l4-6 4-3z" fill="#5F3713"/>
<path transform="translate(879,677)" d="m0 0h9l6 4 4 6 1 6-1 1h-5l-3-8-4-2-9 1-3 9-4 1-1-1v-7l4-6z" fill="#5E3713"/>
<path transform="translate(836,1333)" d="m0 0 4 1 9 11v1h-7l-23-4-9-2 4-2 12-3z" fill="#D0AC23"/>
<path transform="translate(427,953)" d="m0 0h2l7 14 1 8-2 4v5h2v3l-4-1-5-3-2-18v-10z" fill="#194A6D"/>
<path transform="translate(591,346)" d="m0 0 7 1 12 6 8 8v4l-4-1-8-5-12-3-8-1 1-6z" fill="#5F3713"/>
<path transform="translate(744,520)" d="m0 0 13 1 9 4 14 7 8 6 4 7-1 2-7-7-6-3v-2l-5-1-15-7-14-3-12-1 4-2z" fill="#F8F0E8"/>
<path transform="translate(539,313)" d="m0 0 4 1v2l6-1 2 3-2 3 5 2 7 4 1 4-1 3-7 1-4-3v-2h-2l-4-5-4-2-2-8z" fill="#E7C9AD"/>
<path transform="translate(958,641)" d="m0 0 8 1 4 3 1 3v9l-4 5-7 2v-2l6-2 3-6h-2l-2-6-7-1-3 3v5l1 3 5 1-2 4-5-1-4-6v-8l4-5z" fill="#E0C2A2"/>
<path transform="translate(498,351)" d="m0 0h1l2 22 1 13h-2l-5-6v-2h-2l-2-6h-2v-10l2-2h2l5-2z" fill="#AE8E75"/>
<path transform="translate(395,976)" d="m0 0h8l19 4-1 3h-12l-11-2-11-1h-59v-1l9-2h52z" fill="#73858D"/>
<path transform="translate(366,1179)" d="m0 0 9 1 26 5 1 2-6 2h-11l-14-3-11-4 4-2z" fill="#F7ECE1"/>
<path transform="translate(331,914)" d="m0 0 5 1v4l-14 6-4 1v2l-8 6-4 4h-2v2h-2l-1 3h-2l-2 5-3 4-2-4 7-10 5-4 4-4 11-8 2-2 5-1 1-3z" fill="#FCFAF7"/>
<path transform="translate(475,369)" d="m0 0h2v2l7-1 1 4-1 3 1 3h2l2 4 3 1 3-2 2 2-1 4-7 1-2-1v-2l-7-2-6-6 1-4-2-4z" fill="#EFD0B3"/>
<path transform="translate(480,348)" d="m0 0h10l3 2-2 10-2-3-1-2-8-1-3 4v11l-3 2 2 5-3 1-2-6v-11l2-7z" fill="#F3B28A"/>
<path transform="translate(388,920)" d="m0 0 7 1 13 8 10 9 8 9v8l-8-10v-2l-3-1v-2l-4-2-8-7-11-6-4-4z" fill="#527383"/>
<path transform="translate(534,327)" d="m0 0 8 1 5 5 1 5-22 2 1-5 3-5z" fill="#EFD2B6"/>
<path transform="translate(315 1e3)" d="m0 0h11l2 1 11 1 45 1-1 3h-39l-7-1v-2l-5 1h-12l-4-2-4-1z" fill="#3F6A81"/>
<path transform="translate(930,665)" d="m0 0h6l5 3v2h2l1 5-5 1h-18l3-7 1-2z" fill="#DDBF9E"/>
<path transform="translate(970,629)" d="m0 0h6v4l-5 1 2 3h9l3 4v5h-2l-1 3-5 1-1-1-1-4 4-1-11-2-1-2v-8l3-1z" fill="#EDD0B3"/>
<path transform="translate(475,1041)" d="m0 0 4 2h3 3l1 4-2 2v2h2l5 6 5-1 2 4-4 3-6-1-8-9-5-3-1-8z" fill="#8D9598"/>
<path transform="translate(576,964)" d="m0 0h5v4l-5 1 1 3 7-1 5 3 1 6-1 3-3 2h-6v-4l4-1v-3h-10l-2 2-1-11h2l1-3z" fill="#8D9598"/>
<path transform="translate(466,1059)" d="m0 0 3 1v4l-4 1v2h10l3 4-1 7h-2v2h-7v-4l4-1-1-3-7 1-4-3v-7l3-3z" fill="#8D9598"/>
<path transform="translate(574,292)" d="m0 0h6v4l-4 1v2h10l3 3v7l-3 3h-7l1-4h4v-4l-8 1-5-3v-7z" fill="#AE8F75"/>
<path transform="translate(871,706)" d="m0 0 1 2 3 1 5-1 1 4-3 3h2l4 5v2l7-1 2 4-4 3-6-1-1-3h-2l-5-6-4-2-2-5 1-4z" fill="#F0D3B7"/>
<path transform="translate(528,361)" d="m0 0h9l6 3 5 7v5h-6l1-7-1-4-8-2v4l-5 1v6l-6-2-4-4 5-5z" fill="#EFE8E1"/>
<path transform="translate(420,1112)" d="m0 0 10 1 4 3v9h-10l-5-1z" fill="#FBF7F4"/>
<path transform="translate(838,770)" d="m0 0 6 2v16l-7-1-9-4-1-2 4-1 2 2 4-1 1-2h-2l-3-4 1-3z" fill="#D0B291"/>
<path transform="translate(437,992)" d="m0 0 1 3-2 4v2l-13 5-12 2-9-1 2-1v-2l19-2v-2l10-4h3z" fill="#5B7886"/>
<path transform="translate(894,699)" d="m0 0 7 1 3 5-2 6-6 2-5-3-1-1v-6z" fill="#D7B997"/>
<path transform="translate(593,373)" d="m0 0h7l4 5-1 6-2 2-10-1-2-3v-4l3-1z" fill="#5D3918"/>
<path transform="translate(534,363)" d="m0 0 6 1 3 3 1 5-2 4-4 1-8-2-1-7 5-1z" fill="#5C3918"/>
<path transform="translate(398,1120)" d="m0 0h8l2 2v8l-3 3h-6l-4-4v-6z" fill="#8D9598"/>
<path transform="translate(384,877)" d="m0 0 4 8h4l5 11 1 10-1 3 2 13-3 1v-9l-5-18-7-13z" fill="#F2DAC4"/>
<path transform="translate(1224,1090)" d="m0 0 5 1 2 1 1 5-3 5-3 2-5-1-3-3 1-7z" fill="#D7B997"/>
<path transform="translate(400 1e3)" d="m0 0 4 1 4 3-12 2h-13l-1-2-43-1v-1l51-1z" fill="#808B8C"/>
<path transform="translate(331,920)" d="m0 0 3 1-2 4-13 7h-2v2l-10 8-2-3 2-4 9-7h2v-2z" fill="#5D7986"/>
<path transform="translate(500,1034)" d="m0 0 6 1 2 2v7l-3 3h-7l-3-3v-6l3-3z" fill="#1B5477"/>
<path transform="translate(452,1076)" d="m0 0 6 1 2 2v7l-3 3h-6l-4-4v-5z" fill="#1C5678"/>
<path transform="translate(563,308)" d="m0 0 6 1 3 5-2 5-2 2h-6l-3-3v-7z" fill="#5E3713"/>
<path transform="translate(958,646)" d="m0 0 7 1 2 3-1 6-4 3-6-1-2-3 1-7z" fill="#CA787F"/>
<path transform="translate(347,622)" d="m0 0 4 1-2 11-1 2-4 1-3 7h-3v-11l5-1 3-9z" fill="#F4DED1"/>
<path transform="translate(480,353)" d="m0 0 8 1 2 3v5l-2 1h-8v2h-2v3h-2v-10z" fill="#FC8C6A"/>
<path transform="translate(471,1053)" d="m0 0 4 2 11 13-2 4-4-1-9-11v-2l-3-1v-2z" fill="#8D9598"/>
<path transform="translate(433,1091)" d="m0 0h7l3 3v6l-4 4h-6z" fill="#1A4A6D"/>
<path transform="translate(423,1101)" d="m0 0 5 1h4v7l1 1v5l-11-2v-11z" fill="#DAB933"/>
<path transform="translate(590,371)" d="m0 0h8l2 2h-7l-1 5h-3v6l-7-1-3-3 1-3 7-5z" fill="#F2EAE3"/>
<path transform="translate(486,1042)" d="m0 0 5 3 8 10v2h-5-4l-4-4v-2h-2l-1-3 3-1z" fill="#1C5778"/>
<path transform="translate(866,718)" d="m0 0 4 2 9 11 2 4-4 3-6-7v-2h-2l-2-5h-2l-1-4z" fill="#F0D3B7"/>
<path transform="translate(888,556)" d="m0 0 1 3-8 14-4 9-2 5h-1v-12l3-6 4-7z" fill="#F6EADE"/>
<path transform="translate(673 1e3)" d="m0 0 2 1-8 31h-1l-1-18z" fill="#DCBC48"/>
<path transform="translate(304,938)" d="m0 0 2 1v6l-6 7-5 8-1-2h-3l-1-5 4-1 5-9 3-3h2z" fill="#758A91"/>
<path transform="translate(913,532)" d="m0 0h3l-2 4-9 6-9 8h-2l-2 4-8 6 2-4 7-9 10-8 9-6zm-31 28 2 1-2 1z" fill="#F9F0E8"/>
<path transform="translate(308,979)" d="m0 0h4v2l2 1-7 2-11 2-4 2h-3v2l-4 2-1-1v-5h6v-2l7-3z" fill="#416C82"/>
<path transform="translate(957,1320)" d="m0 0h9v8l-3 2h-6l-3-2-1-5 1-2z" fill="#5F3713"/>
<path transform="translate(549,400)" d="m0 0 11 6h8l5-3 3-1-2 5-3 3-3 1h-8l-8-4-3-4z" fill="#F48B6A"/>
<path transform="translate(763,552)" d="m0 0 7 6 9 11 3 5-1 2-4-1-3-4v-3l-3-1-4-7v-2l-5-2z" fill="#ECD3B9"/>
<path transform="translate(389,1166)" d="m0 0 9 6v3l-11 2h-5l4-7z" fill="#F8ECE2"/>
<path transform="translate(660,1136)" d="m0 0h1v9l-2-1zm-78 7 5 1 72 1v1h-76z" fill="#3E3B3D"/>
<path transform="translate(499,362)" d="m0 0h6l3 4-1 7-3 2h-3l-2-10z" fill="#F5AE85"/>
<path transform="translate(828,756)" d="m0 0h7l3 3v6l-4 2-7-6z" fill="#5E3715"/>
<path transform="translate(516,1020)" d="m0 0 6 2v13l-3-1v-2h-2l-4-6 1-5z" fill="#1B5577"/>
<path transform="translate(576,964)" d="m0 0h5v4l-5 1 1 3 4 2-2 1 1 2h-6l-2 2-1-11h2l1-3z" fill="#8C9495"/>
<path transform="translate(622,377)" d="m0 0 5 2 1 2v9l-1 3h-2l-3-6-2-3v-5z" fill="#FA8C6A"/>
<path transform="translate(424,1341)" d="m0 0h4v7l-16-1v-3z" fill="#CFAD32"/>
<path transform="translate(332,1008)" d="m0 0h5v2l44 1v1h-42l-19-2v-1z" fill="#848C8E"/>
<path transform="translate(427,976)" d="m0 0h1v7l5 2 4 2-1-7 3-1 1 8-4 4-5-2-6-3-1-4h3z" fill="#818A8D"/>
<path transform="translate(944,1331)" d="m0 0 4 5 2 2h6v4l-3 2-6-1-4-2z" fill="#B09177"/>
<path transform="translate(290,958)" d="m0 0h4l-1 7-3 9-3 4-1-9z" fill="#5E7A87"/>
<path transform="translate(830,1074)" d="m0 0 2 1 1 5-22 3 3-3z" fill="#F9F0E7"/>
<path transform="translate(953,647)" d="m0 0h2v8l1 3 5 1-2 4-5-1-4-6v-6h3z" fill="#E3C6A7"/>
<path transform="translate(944,1339)" d="m0 0 5 4 4 1-2 4-7 4h-2l1-11z" fill="#624123"/>
<path transform="translate(536,338)" d="m0 0h8l-2 6-2 1h-6l-3-2 1-4z" fill="#5F3713"/>
<path transform="translate(526,341)" d="m0 0 3 4-3 3-8 3-4-1 1-3 5-2v-2z" fill="#977559"/>
<path transform="translate(455,732)" d="m0 0v3l-8 10-12 12-5 3-2-1 1-2 6-4 3-3h2v-2l5-4 9-11z" fill="#543C2B"/>
<path transform="translate(526,347)" d="m0 0h2l1 2 6 3v3l-3 2-12-7 2-2z" fill="#EFD2B6"/>
<path transform="translate(677,272)" d="m0 0 8 1 2 3-1 5-6-2-6-3 1-3z" fill="#F3E5D6"/>
<path transform="translate(698,1022)" d="m0 0 1 2 6 1-5 5-6 4-4 2 2-5z" fill="#F3E0CE"/>
<path transform="translate(535,332)" d="m0 0 7 1 2 5-12 1-1-3z" fill="#F4AE84"/>
<path transform="translate(432,1081)" d="m0 0h1l1 5h6l5 5-1 3h-2v-2l-9-1-1-1z" fill="#8D9598"/>
<path transform="translate(468,1057)" d="m0 0 3 1 5 7v2l-11 1v-4h4z" fill="#1B5477"/>
<path transform="translate(732,1049)" d="m0 0 1 3h2l1 3-8 6-6 4 2-5z" fill="#F4E2D0"/>
<path transform="translate(373,1008)" d="m0 0h11l-1 3h-39v-1h29z" fill="#1D5A7B"/>
<path transform="translate(420 1e3)" d="m0 0h3v2l-8 1 1 2-11 1-3-2h2v-2z" fill="#5D7B87"/>
<path transform="translate(946,665)" d="m0 0h3v2l8-1-1 5-1 1h-6l-3-2z" fill="#EDD0B3"/>
<path transform="translate(382,1236)" d="m0 0 6 4v4l-12 1 3-3v-3z" fill="#F5E5D5"/>
<path transform="translate(418,940)" d="m0 0 4 2 4 5v8l-8-10v-2l-3-1z" fill="#4E7284"/>
<path transform="translate(528,359)" d="m0 0h10l6 3 4 6-1 3-5-7-5-2h-9l-6 2 4-4z" fill="#603916"/>
<path transform="translate(1189,1119)" d="m0 0 6 1 2 4-8 1-2 2v-2l-3 1 1-5z" fill="#DBBD9B"/>
<path transform="translate(443,1088)" d="m0 0 4 1v12l-5 1 2-11h-2zm-2 14m-2 1h2v2h-2z" fill="#889093"/>
<path transform="translate(498,362)" d="m0 0 2 3 1 10-4-1-3-5 2-6z" fill="#5F3713"/>
<path transform="translate(316,977)" d="m0 0 12 1v2l-9 2-7-1v-3z" fill="#647D89"/>
<path transform="translate(331,920)" d="m0 0 3 1-2 4-6 3-5-2 3-3z" fill="#647D87"/>
<path transform="translate(495,225)" d="m0 0h9l-4 3-7 4h-2l-1 2v-7z" fill="#F3DFCC"/>
<path transform="translate(935,1321)" d="m0 0 6 5 1-3h2l1 4-1 1-10 1-1-5z" fill="#DEBE3D"/>
<path transform="translate(416,1105)" d="m0 0h3l-1 12-4-1-1-7z" fill="#8B9396"/>
<path transform="translate(1189,1124)" d="m0 0h8v5l-3 3h-2l-1-4-3-1z" fill="#CA787F"/>
<path transform="translate(902,586)" d="m0 0 2 2v9l-2 3-4-2v-3h2v-5z" fill="#F5E7DA"/>
<path transform="translate(548,338)" d="m0 0h2l3 6-1 5-7-2z" fill="#5F3713"/>
<path transform="translate(769,1066)" d="m0 0 2 1v2l4 1-15 6-2-1z" fill="#F3DECA"/>
<path transform="translate(772,564)" d="m0 0h3l7 10-1 2-4-1-3-4v-3l-3-1 3-2z" fill="#EFD9C2"/>
<path transform="translate(812,770)" d="m0 0 2 2-1 10-4-1-1-6 2-4z" fill="#D7B997"/>
<path transform="translate(825,760)" d="m0 0 5 3 4 4-1 2h-5l-4-5z" fill="#D2B493"/>
<path transform="translate(494,383)" d="m0 0 3 2-1 4-7 1-2-1 1-5 4 1z" fill="#AB8F77"/>
<path transform="translate(989,1193)" d="m0 0 2 1v7l-1 5h-2l-2-6 1-6z" fill="#FEFEFE"/>
<path transform="translate(1188,1127)" d="m0 0 3 1 1 4h3l1 4-5 1-1 2-2-7z" fill="#E8CBAD"/>
<path transform="translate(1205,1105)" d="m0 0h2v9l-1 2h-3l-1-2v-6z" fill="#D7B997"/>
<path transform="translate(1197,1124)" d="m0 0h5l-1 7-2 3h-2l-1-5z" fill="#E0C3A3"/>
<path transform="translate(433,963)" d="m0 0 3 4 1 8-1 3h-2l-2-7z" fill="#527484"/>
<path transform="translate(902,1188)" d="m0 0 5 1 21 1v1h-32l4-2z" fill="#F1D7BE"/>
<path transform="translate(436,1108)" d="m0 0h2l3 4v2h2l-2 4-4-1v-2h-2z" fill="#899194"/>
<path transform="translate(1236,1078)" d="m0 0h3l4 9v2l-5-2-2-2z" fill="#D7B997"/>
<path transform="translate(315 1e3)" d="m0 0h11l3 3-1 1h-8l-4-2-4-1z" fill="#3B6981"/>
<path transform="translate(968,646)" d="m0 0h2l1 2v9l-4 5-7 2v-2l6-2 2-4 1-7z" fill="#EFD2B6"/>
<path transform="translate(549,321)" d="m0 0 5 2 7 4-4 3-4-2-3-3z" fill="#E8AA85"/>
<path transform="translate(323,976)" d="m0 0h16l-2 2-9 1-9-1z" fill="#34657F"/>
<path transform="translate(530,346)" d="m0 0h13l2 2-6 2-7-1z" fill="#EED1B5"/>
<path transform="translate(369,1242)" d="m0 0 4 1-1 2 2 1-13 1v2l-4-1 5-3 6-2z" fill="#EED1B4"/>
<path transform="translate(426,999)" d="m0 0m-3 1h3v2h3v2l-10 3-6-1 3-2h7z" fill="#79868C"/>
<path transform="translate(600,373)" d="m0 0 4 2 4 8-2 4-3-1v-8z" fill="#EDDFD1"/>
<path transform="translate(427,976)" d="m0 0h1v7l4 1-1 4-6-2-1-4h3z" fill="#647D89"/>
<path transform="translate(427,953)" d="m0 0h2l4 7-1 5-2-3v-3h-2l-1-3v9h-1v-10z" fill="#878E8E"/>
<path transform="translate(861,737)" d="m0 0h7v4h-5l-1 5h-1l-1-8z" fill="#D8BA98"/>
<path transform="translate(397,901)" d="m0 0h1v5l-1 3 2 13-3 1v-9l-3-12h2v3h2z" fill="#EDD1B6"/>
<path transform="translate(501,377)" d="m0 0 6 8-1 4h-3l-1-1z" fill="#E8CBAE"/>
<path transform="translate(939,668)" d="m0 0h2v2h2l1 5h-5l-3-4v-2z" fill="#EFD2B6"/>
<path transform="translate(544,367)" d="m0 0 4 4v5h-6z" fill="#F8F5F2"/>
<path transform="translate(471,1071)" d="m0 0 2 1-1 4h-4l-1 4-2-2 1-4z" fill="#1B5376"/>
<path transform="translate(913,532)" d="m0 0h3l-2 4-9 6-2 1 2-5z" fill="#FAF3EC"/>
<path transform="translate(728,1343)" d="m0 0h3l4 4v1h-8v-1l-6-1v-1h7z" fill="#423C3D"/>
<path transform="translate(388,920)" d="m0 0 7 1v2l3 3-3 1-6-4z" fill="#697B81"/>
<path transform="translate(819,775)" d="m0 0h4l2 4 2 2-5 2-4-7z" fill="#8D6B4D"/>
<path transform="translate(500,340)" d="m0 0 7 4-5 4-4-4z" fill="#AE8F75"/>
<path transform="translate(573,980)" d="m0 0 3 2 1 8-1 2h-2z" fill="#999995"/>
<path transform="translate(384,1286)" d="m0 0h12v2l-9 3 1-4z" fill="#F0D8C0"/>
<path transform="translate(817,1121)" d="m0 0 2 1-1 3 4 1h-14l2-2h5v-2z" fill="#F0DCC8"/>
<path transform="translate(422,981)" d="m0 0 4 1-2 5-9-3v-2h6z" fill="#878D8E"/>
<path transform="translate(927,527)" d="m0 0 2 2-12 6-2-1 1-3 10-3z" fill="#EBD5BD"/>
<path transform="translate(432,1081)" d="m0 0h1l1 5 3 1 1 4h-5l-1-1z" fill="#949694"/>
<path transform="translate(820,1078)" d="m0 0 8 2v1l-17 2 3-3z" fill="#F0CEB0"/>
<path transform="translate(486,1042)" d="m0 0 3 1-1 4-1 2 2 5-3-1v-2h-2l-1-3 3-1z" fill="#194C71"/>
<path transform="translate(332,1008)" d="m0 0h5l-1 3-16-1v-1z" fill="#7C888C"/>
<path transform="translate(797,998)" d="m0 0h8l1 3h-9l-3-2z" fill="#F9F2EB"/>
<path transform="translate(406,931)" d="m0 0 4 1v2l4 2 1 4-4-2-5-5z" fill="#7E898C"/>
<path transform="translate(924,670)" d="m0 0h5l-3 6h-5l2-5z" fill="#F0D3B7"/>
<path transform="translate(966,654)" d="m0 0h3l-1 3-4 4-5 2 2-4z" fill="#D7B997"/>
<path transform="translate(347,622)" d="m0 0 4 1-1 7-3-3-3 3 2-7z" fill="#EDBDA1"/>
<path transform="translate(423,944)" d="m0 0 3 3v8l-4-5-1-3z" fill="#73848A"/>
<path transform="translate(420 1e3)" d="m0 0h3v2l-8 1 1 2h-6l1-3z" fill="#205B7B"/>
<path transform="translate(301 1e3)" d="m0 0 12 2v1l-11 1-3-2z" fill="#245D7C"/>
<path transform="translate(900,689)" d="m0 0 1 3h2l4 5v2l-3-1v-2h-4l-1-6z" fill="#D5B795"/>
<path transform="translate(953,644)" d="m0 0 7 1-4 3-3-1v3h-3l2-5z" fill="#D9BB9A"/>
<path transform="translate(784,579)" d="m0 0 4 5 1 4h-4l-1-2z" fill="#ECD2B8"/>
<path transform="translate(526,341)" d="m0 0 3 4-1 2-5-1-2-2z" fill="#5F3713"/>
<path transform="translate(517,1066)" d="m0 0h3l-1 11h-2z" fill="#446075"/>
<path transform="translate(956,658)" d="m0 0 5 1-2 4-5-1-1-3z" fill="#E7CAAB"/>
<path transform="translate(989,1209)" d="m0 0 1 3-2 1z" fill="#FEFEFE"/>
<path transform="translate(604,225)" d="m0 0" fill="#F0D3B7"/>
<path transform="translate(604,223)" d="m0 0" fill="#F0D3B7"/>
</svg>
