<?xml version="1.0" encoding="UTF-8"?>
<svg version="1.1" viewBox="0 0 1000 1000" width="1280" height="1280" xmlns="http://www.w3.org/2000/svg">
<path transform="translate(317,79)" d="m0 0h3l3 4 11-1 5-1 25 1 18 4 6 2h2l2-4 3-3h3l-1 5-3 5 8 7 8 10h2l7-9h2l-1 6-5 7 2 5 9 15 2 4 3 1 44 4 3-6 5 1v7l14 1 3-4 4 1v6l21 5 26 9 16 8 11 7 9 7 7-3h4l-2 4-4 2-1 2 13-5h2l-2 4-13 8-18 7 27-5 6-1-1 4-8 4-8 2 4 1h8l2 1-2 4-3 1-6 12-11 12-12 9-23 12-28 10-28 8-21 5-4 9-5 7-9 6-3 1h-12l-3-1 1 11 2 6v4l7-1 2 4-3 2h-6l1 2 4 2-2 4-5-1-2 6-2 4v12l34-3 37-5 44-8 16-3 9-1h30l16 4 13 7 13 8 10 6 5 4 4-1 6-7-8-14-4-13v-15l4-12 7-9 4-3 4 1 1 2 1 14 4 10 9 10 10 8 17-4 7-1h29l26 4h6l11-10 6-8 4-10 1-18 4-1 6 4 7 9 4 11 1 11-2 12-7 16 1 5 10 9 2 1h13l15-5 13-5 11-2 13 1 15 4 12 5 10 6 10 9 5 5-1 5-10 9-12 7-16 5-8 1h-15l-16-3-12-5-16-7h-8l-7 3-4 10-2 11 7 6 6 12-1 8-4 9-7 6-9 3-1 5-2 48v51l-3 12-4 7-7 7-12 6-14 3h-42l-21-3-12-2-3 9-4 10-6 35-4 33-2 25v61l2 22 6 19 1 6v13l-4 8-4 3-10 1-12-3-13-7-6-7-3-7v-16l6-48 1-10v-56l-3-25h-8l-8 17-7 21-4 17-2 14-1 14v19l2 21 3 16 6 21v14l-4 8-6 4h-11l-12-4-9-5-8-9-2-7v-13l5-43 1-27-2-28-3-18-6-25-6-17-5-9-3-2-2 18-6 16-9 17-9 10-6 3h-8l-8-3-3-2-2-6-8-5-1-2v-10l2-4-1-10 4-8 9-10 4-4h-10l-5 5-5 6-7 4h-7l-6-4-4-5v-8l7-15-22-3-5-1-1 12-4 15-7 12-6 7 1 6 5 12 1 4v12l-2 4 10 8 5 8v10l-16 60 1 3 14 11 20 15 15 10 10 9 7 11 2 6v8l-7 8-14 8-11 5-9 1-20-4-17-5-9-5-7-7-11-14-5-6-8 1-8-7-13-12-1-2v-16l3-109 3-5 5-3 10-2v-6l-1-2h-11l-6-1v11l-3 7-5 4h-2l2 71v53l-10 10-8 7-3 2-8-1-8 9-7 9-9 10-8 4-21 6-15 3-10-1-16-7-10-7-6-6v-10l6-12 9-10 10-7 17-12 18-14 8-7-1-9-3-8-5-8-6-14-6-15-7 24-11 42-5 5-11 4-20 3h-30l-22-3-11-4-4-4-3-13-6-36-6-34v-9l5-5 9-4 14-3 26-3h18v-6l-11-6-10-8-6-7-3-7-1-6v-40l-2-8-2-31-10 40-6 17-8 12-8 7-13 5-15 3-18 3-12 5-8 6-5 6-4 10-2-2v-8l2-10 8-16 11-12 8-7 19-12 18-11 13-10 8-7 9-13 7-14 4-13 3-16 2-27v-13l-3-48v-42l3-18 5-16 8-15 9-8 10-5 13-3 7-1h25l27 3-3-10v-4h-2l1-3v-21l-5 3-4 2v-4l1-2-11-1-7-4-7-8-4-9-2-7-30-7-24-7-21-8-17-9-13-10-6-7-4-8-1-3v-11l4-11 11-12 10-7 4-3-2-5-2-4 1-4 3 1 7 12 7 9v2l12 6-5-5-6-5-1-4 4-1 4 3-6-12-6-9 1-2 4 1 5 7 2 1-2-5v-4h2l4 12 5 5h5l-2-8 6 3-5-12 1-5 3 1 1 5 23-7 30-7 33-6h2l2-9 7-19-1-4-4-4 4-1 6 1 2-5 8-8 18-8 11-3zm-123 293-10 4-10 9-6 9-4 14v31l2 24 1 42 2 3 7-26 10-26 2-4v-40l3-17 5-13 4-9-1-1zm136 292-1 14v15l9 2 1-1v-13l-4-11-3-6zm-48 2v27l3 11 5-1v-9l-6-28zm-51 18-7 6-9 4-4 1-1 7 1 1 24 3h7l-5-13-5-9z" fill="#D9A77A"/>
<path transform="translate(317,79)" d="m0 0h3l3 4 11-1 5-1 25 1 18 4 6 2h2l2-4 3-3h3l-1 5-3 5 8 7 8 10h2l7-9h2l-1 6-5 7 2 5 9 15 2 4 3 1 44 4 3-6 5 1v7l14 1 3-4 4 1v6l21 5 26 9 16 8 11 7 9 7 7-3h4l-2 4-4 2-1 2 13-5h2l-2 4-13 8-18 7 27-5 6-1-1 4-8 4-8 2 4 1h8l2 1-2 4-3 1-6 12-11 12-12 9-23 12-28 10-28 8-21 5-4 9-5 7-9 6-3 1h-12l-3-1 1 11 2 6v4l7-1 2 4-3 2h-6l1 2 4 2-2 4-5-1-2 6-2 4v12l34-3 37-5 55-10h9l5 2 10 1 6 4 1 2v6l-3 5-8 6-10 3h-15l-9-1h-10l-10 3-8 6-9 14-8 6-3 2-1 3v7l3 4v2l5 2 10 5 15 4h12l5-3 3-5 3-11 11 1 26 6 9 3h21l11-2-2 5v10l3 13-1 13-2 8v14l4 5 8 3 20 4 4 4 1 7-5 11-1 5-1 22-1 6 5 2 1 3-4 8-16 16-14 9-8 3-4 1h-8l-9-3-8-9-4-11-6-34-4-12-4-7-5 2-6 8-8 18-5 10-5 6-4 2-5-24-9-36-10-29-10-23-12-23-16-24-9-11-4-5-12-8-3-5-9-4-10-1-6 8-3 2-5 25-3 20-2 12-1 3-1 7-1 10-1 2h-4v-2l-27-3h-33l-23 3-21 5h-2l-4-13-6-22-5-20-7-24-2-5-9-1-8 3-5 6 3 16 3 12 1 7 1 1 3 16 4 15 3 13 1 6-6 3-10 8-7 10-4 7-5 12-1 3v26l3 20 7 21 7 13 7 9 9 10 4 3 5 23 6 30v2h-2l1 27 3 12-11 8-8 7-4 5-1-8-6-5-7-3-7-2-8-18-3-4-7 6-9 4h-4l1-23v-15l-2-2h-9l-2 7-1 16-2 17-2 1-11-6-10-8-6-7-3-7-1-6v-40l-2-8-2-31-10 40-6 17-8 12-8 7-13 5-15 3-18 3-12 5-8 6-5 6-4 10-2-2v-8l2-10 8-16 11-12 8-7 19-12 18-11 13-10 8-7 9-13 7-14 4-13 3-16 2-27v-13l-3-48v-42l3-18 5-16 8-15 9-8 10-5 13-3 7-1h25l27 3-3-10v-4h-2l1-3v-21l-5 3-4 2v-4l1-2-11-1-7-4-7-8-4-9-2-7-30-7-24-7-21-8-17-9-13-10-6-7-4-8-1-3v-11l4-11 11-12 10-7 4-3-2-5-2-4 1-4 3 1 7 12 7 9v2l12 6-5-5-6-5-1-4 4-1 4 3-6-12-6-9 1-2 4 1 5 7 2 1-2-5v-4h2l4 12 5 5h5l-2-8 6 3-5-12 1-5 3 1 1 5 23-7 30-7 33-6h2l2-9 7-19-1-4-4-4 4-1 6 1 2-5 8-8 18-8 11-3zm-123 293-10 4-10 9-6 9-4 14v31l2 24 1 42 2 3 7-26 10-26 2-4v-40l3-17 5-13 4-9-1-1z" fill="#BC8C57"/>
<path transform="translate(429,363)" d="m0 0 10 1 10 5 2 6-4 17-3 16-3 12-3 16-5 23 2 5 1 3 3 1 7 11 5 11 9 13 7 15 7 22 6 29 1 12h-9l-12-5-5-7-2 3-7 16-8 11-3 4-12 60-1 11 6 14 1 4v12l-2 4 10 8 5 8v10l-16 60 1 3 14 11 20 15 15 10 10 9 7 11 2 6v8l-7 8-14 8-11 5-9 1-20-4-17-5-9-5-7-7-11-14-5-6-8 1-8-7-13-12-1-2v-16l3-109 3-5 5-3 10-2v-6l-1-2h-11l-6-1v11l-3 7-5 4h-2l2 71v53l-10 10-8 7-3 2-8-1-8 9-7 9-9 10-8 4-21 6-15 3-10-1-16-7-10-7-6-6v-10l6-12 9-10 10-7 17-12 18-14 8-7-1-9-3-8-5-8-6-14-6-15-7 24-11 42-5 5-11 4-20 3h-30l-22-3-11-4-4-4-3-13-6-36-6-34v-9l5-5 9-4 14-3 26-3h18l3-24 1-16 2-7 1-1h9l3 3v15l-2 30 31 4 14 5 7 6 1 6 9-10 12-8 5-2-3-19-14-70-1-3-8-7-10-12-8-14-6-16-4-18-1-9v-26l4-11 4-8 10-14 11-9 4-1-1-6-3-13-4-15-3-16-1-1-3-16-1-4-2-11-1-4 7-8 7-2 9 1 4 9 4 15 4 13 5 21 7 25v2l10-3 20-4 20-2h32l22 3 2 1v2h4l1-12 1-7 3-15 3-20 5-25 5-5zm-99 301-1 14v15l9 2 1-1v-13l-4-11-3-6z" fill="#5C9BC4"/>
<path transform="translate(317,79)" d="m0 0h3l3 4 11-1 5-1 25 1 18 4 6 2h2l2-4 3-3h3l-1 5-3 5 8 7 8 10h2l7-9h2l-1 6-5 7 2 5 9 15 2 4 3 1 44 4 3-6 5 1v7l14 1 3-4 4 1v6l21 5 26 9 16 8 11 7 9 7 7-3h4l-2 4-4 2-1 2 13-5h2l-2 4-13 8-18 7 27-5 6-1-1 4-8 4-8 2 4 1h8l2 1-2 4-3 1-6 12-11 12-12 9-23 12-28 10-28 8-21 5-4 9-5 7-9 6-3 1h-12l-3-1v-15l5-2v-2l-5-1 3-4h3v-3l-6 1-1-73-8-6-16-8-15-5-17-3h-32l-22 3-26 7-19 8-12 7-8 7 2 52v20l-6 7 6-3 1 6v15l-5 4-1-1-11-1-7-4-7-8-4-9-2-7-30-7-24-7-21-8-17-9-13-10-6-7-4-8-1-3v-11l4-11 11-12 10-7 4-3-2-5-2-4 1-4 3 1 7 12 7 9v2l12 6-5-5-6-5-1-4 4-1 4 3-6-12-6-9 1-2 4 1 5 7 2 1-2-5v-4h2l4 12 5 5h5l-2-8 6 3-5-12 1-5 3 1 1 5 23-7 30-7 33-6h2l2-9 7-19-1-4-4-4 4-1 6 1 2-5 8-8 18-8 11-3z" fill="#F9D45F"/>
<path transform="translate(807,290)" d="m0 0 5 1 7 6 5 8 3 9 1 11-2 12-7 16 1 5 10 9 2 1h13l15-5 13-5 11-2 13 1 15 4 12 5 10 6 10 9 5 5-1 5-10 9-12 7-16 5-8 1h-15l-16-3-12-5-16-7h-8l-7 3-4 10-2 11 7 6 6 12-1 8-4 9-7 6-9 3-1 5-2 48v51l-3 12-4 7-7 7-12 6-14 3h-42l-21-3-12-2-1 2v-3l-10-3-10-6-7-8-3-10 1-49 3-3 3-1 21-1 5-3 4-9 6-8 4-5 1-7-9-14-3-3-1-3v-10l6-18 1-13 5-8 2-7v-8l-3-12-1-24-2-6v-7l1-7-4-6-4 1-3 6-5 5-9 5-6 3-11 1-2-6-5-8-4-11-1-4v-15l4-12 7-9 4-3 4 1 1 2 1 14 4 10 9 10 10 8 17-4 7-1h29l26 4h6l11-10 6-8 4-10 1-18z" fill="#EDD2B9"/>
<path transform="translate(214,350)" d="m0 0h25l28 3 5 7v2l-8 3-6 4h-2l-2 4-7 8-1 2 4-1 2 6 1 9 3 11 1 7 1 1 3 16 4 15 3 13 1 6-6 3-10 8-7 10-4 7-5 12-1 3v26l3 20 7 21 7 13 7 9 9 10 4 3 5 23 6 30v2h-2l1 27 3 12-11 8-8 7-4 5-1-8-6-5-7-3-7-2-8-18-3-4-7 6-9 4h-4l1-23v-15l-2-2h-9l-2 7-1 16-2 17-2 1-11-6-10-8-6-7-3-7-1-6v-40l-2-8-2-31-10 40-6 17-8 12-8 7-13 5-15 3-18 3-12 5-8 6-5 6-4 10-2-2v-8l2-10 8-16 11-12 8-7 19-12 18-11 13-10 8-7 9-13 7-14 4-13 3-16 2-27v-13l-3-48v-42l3-18 5-16 8-15 9-8 10-5 13-3zm-20 22-10 4-10 9-6 9-4 14v31l2 24 1 42 2 3 7-26 10-26 2-4v-40l3-17 5-13 4-9-1-1z" fill="#F5DCB9"/>
<path transform="translate(368,632)" d="m0 0h5l1 1 2 31v20l-1 1h-11l-6-1v11l-3 7-5 4h-2l2 71v53l-10 10-8 7-3 2-8-1-8 9-7 9-9 10-8 4-21 6-15 3-10-1-16-7-10-7-6-6v-10l6-12 9-10 10-7 17-12 18-14 8-7-1-9-3-8-5-8-6-14-6-15-7 24-11 42-5 5-11 4-20 3h-30l-22-3-11-4-4-4-3-13-6-36-6-34v-9l5-5 9-4 14-3 26-3h18l3-24 1-16 2-7 1-1h9l3 3v15l-2 30 31 4 14 5 7 6 1 6 9-10 12-8 5-2v-7h1l3 22 3 13 1 4 12-3 10-4 6-2 5-5 8-7 3-4 2-4-3-6-11-4-1-3 9 1v-13l-4-11-2-6h-2l1-21 1-9 1-1h25z" fill="#96AFC4"/>
<path transform="translate(451,374)" d="m0 0 8 4 7 6 11 14 14 21 10 18 10 21 10 27 7 23 7 30 4 26 3 28v16l-2 2 3 7 3 15 1 9 1 4-2 18-6 16-9 17-9 10-6 3h-8l-8-3-3-2-2-6-8-5-1-2v-10l2-4-1-10 4-8 9-10 4-4h-10l-5 5-5 6-7 4h-7l-6-4-4-5v-8l7-15-22-3-5-1-1 12-4 15-7 12-5 6h-1l1-10 9-46 3-12 6-7 8-14 5-12 8 8 10 4 9 1-5-28-5-20-7-20-8-15-7-9-5-12-6-9-5-5-1-5 3-14 3-15 3-11 3-17 2-9 4-17z" fill="#F5DCB9"/>
<path transform="translate(556,340)" d="m0 0h9l5 2 10 1 6 4 1 2v6l-3 5-8 6-10 3h-15l-9-1h-10l-10 3-8 6-9 14-8 6-3 2-1 3v7l3 4v2l5 2 10 5 15 4h12l5-3 3-5 3-11 11 1 26 6 9 3h21l11-2-2 5v10l3 13-1 13-2 8v14l4 5 8 3 20 4 4 4 1 7-5 11-1 5-1 22-1 6 5 2 1 3-4 8-16 16-14 9-8 3-4 1h-8l-9-3-8-9-4-11-6-34-4-12-4-7-5 2-6 8-8 18-5 10-5 6-4 2-5-24-9-36-10-29-10-23-12-23-16-24-9-11-4-5-12-8-3-5-9-4-10-1-4 4 2-6 2-3 3-1 41-4 28-4 44-8z" fill="#816D59"/>
<path transform="translate(807,290)" d="m0 0 5 1 7 6 5 8 3 9 1 11-2 12-7 16 1 5 10 9 2 1h13l15-5 13-5 11-2 13 1 15 4 12 5 10 6 10 9 5 5-1 5-10 9-12 7-16 5-8 1h-15l-16-3-12-5-16-7h-8l-7 3-4 10-2 11 7 6 6 12-1 8-4 9-7 6-9 3-1 5-3 66h-4l-14-6-12-5-8-6-3-3-2-8-3-29-2-49-2-39v-18l7-22 2-6 2-2 2-7h11l11-10 6-8 4-10 1-18z" fill="#DAA87B"/>
<path transform="translate(570,338)" d="m0 0h30l16 4 13 7 13 8 10 6 5 4 4-1 5-5 12-2 10-5 8-6 3-4 3-5 4 1 4 6-1 14 2 6 1 24 3 12v8l-3 9-4 6-1 13-6 18v10l3 5 8 11 2 4-1 7-9 11-4 10-4 4-3 1-21 1-6 3v-58l-8-1-6-4-5-7-2-12 6-7 2-1h9l6 3 4 5v2h2v-11l-4-6-8-4-6-1-2-13-1-4-19 9-18 5h-21l-14-4-27-6-5-1-2 11-4 6-5 3h-12l-15-4-12-6-5-5-2-3v-7l3-5 9-6 10-15 8-6 10-3h10l9 1h15l10-3 6-5h2l2-5v-6l-4-4-2-1-13-2-6-2v-1z" fill="#E6B38B"/>
<path transform="translate(421,674)" d="m0 0 3 4 5 14v12l-2 4 10 8 5 8v10l-16 60 1 3 14 11 20 15 15 10 10 9 7 11 2 6v8l-7 8-14 8-11 5-9 1-20-4-17-5-9-5-7-7-11-14-5-6-8 1-8-7-13-12-1-2v-16l3-109 3-5 5-3 11-2 2 29 5 5 12 5 10 3 2 1 1-2v2l4-1h18l6-2 1-9-4-6-8-8-5-2-4-1-2 2-1-3 1-13h2l1-10z" fill="#96AFC3"/>
<path transform="translate(201,654)" d="m0 0h9l3 3v15l-2 30 31 4 14 5 6 5-1 10-2 7-2 11-15 57-3 9-8 5-11 3-16 2h-30l-22-3-11-4-4-4-3-13-6-36-6-34v-9l5-5 9-4 14-3 26-3h18l3-24 1-16 2-7z" fill="#85D4D8"/>
<path transform="translate(233,507)" d="m0 0 1 3v25l2 13 1 2 1 9 3 7 5 14 9 15 1 3h2l7 8 5 5 4 3 10 50v2h-2l1 27 3 12-11 8-8 7-4 5-1-8-6-5-7-3-7-2-8-18-3-4-7 6-9 4h-4l1-23v-15l-2-2h-9l-2 7-1 16-2 17-2 1-11-6-10-8-6-7-3-7-1-6v-33l2-6 13 2h28l12-3 4-2v-36l2-32 4-28 4-15z" fill="#E7B48B"/>
<path transform="translate(379,191)" d="m0 0 4 5 9 4 22 6 6 4 2 4-1 26-1 12-2 42-1 10-4 4h-2v2h-11l-16-4-13-1v2l-13 5h-24l-13-5-5-1-17 4-9 1-5-3-4-6-4-24-3-20v-14l3-1 2 17 4-1 17-7 16-4 17-3 3-3v-11l5-1h13l-1 14h15l25 5 16 6 5 2v-21l-11-3-23-6-10-2 1-2v-12l-2-4v-3h2v-2l2-2-2-2z" fill="#FCC89E"/>
<path transform="translate(454,568)" d="m0 0 8 8 10 4h10l3 28 10 4 9 1h19l16-3 3 3 4 19 1 9 1 4-2 18-6 16-9 17-9 10-6 3h-8l-8-3-3-2-2-6-8-5-1-2v-10l2-4-1-10 4-8 9-10 4-4h-10l-5 5-5 6-7 4h-7l-6-4-4-5v-8l7-15-22-3-5-1-1 12-4 15-7 12-5 6h-1l1-10 9-46 3-12 6-7 8-14z" fill="#FCC89F"/>
<path transform="translate(685,627)" d="m0 0h1v8l-6 42-3 35v61l2 22 6 19 1 6v13l-4 8-4 3-10 1-12-3-13-7-6-7-3-7v-16l6-48 1-10v-56l-2-19v-6l12-5 12-7 10-9 8-11z" fill="#C2956D"/>
<path transform="translate(441,473)" d="m0 0 4 4 6 13 9 13 7 15 7 22 6 29 1 12h-9l-12-5-5-7-2 3-7 16-8 11-3 4-12 60-2 13-3 12-1 5h-2v13h1l7 2 5 3 9 9 2 4v6l-5 5-3 1h-25l-15-5-10-5-3-4-4-77-1-12-15 1h-14l-10-1-2-2 41-1 5 1 16-4 16-6 11-7 11-9 2-6 3-3 4-5 4-7 3-7 1-5h2l3-12 2-15v-17l1-2h-3v-16l-6-19-8-16z" fill="#5C9AC4"/>
<path transform="translate(277,373)" d="m0 0h5l2 7 1 4 3 1 4 5 8 4-1 7-1 3h2v-2l4-3h2v-3h11l1 3 10 5 12 2v6h4v-9l4-1 7 2h15v4l2-1 2-5 8-6 2-3 12-3 4-5 1-2h6v4h4l-1-6 5-3 3-5 2 1-5 25-3 20-2 12-1 3-1 7-1 10-1 2h-4v-2l-27-3h-33l-23 3-21 5h-2l-4-13-6-22-5-20-7-24v-3z" fill="#F4DCBA"/>
<path transform="translate(317,79)" d="m0 0h3l3 4 11-1 5-1 25 1 18 4-4 1h-3l2 9v31 4l-5 3-6 2-54 4-42 5h-6l2-9 7-19-1-4-4-4 4-1 6 1 2-5 8-8 18-8 11-3z" fill="#FCE070"/>
<path transform="translate(347,191)" d="m0 0 2 1-4 10-5 6 15-3 12-5 6-1v3h-2v2h-2l3 7v12l-1 1 25 6 18 6v21l-5-1-16-6-25-5-15-1 1-14-18 1 1 11-4 4-23 4-18 6-10 5-4-1-2-14-3 3-1-17 3-7 5-7 2-1 14-2 18-6 22-11z" fill="#F7B980"/>
<path transform="translate(214,350)" d="m0 0h25l28 3 5 7v2l-8 3-6 4h-2l-2 4-7 8-1 3-15 6-9 8-11 14-7 10-13 22-2 3-2-8v-27l3-17 5-13 4-9-8 1-10 5-7 7-6 11-3 11v31l2 24v51l-3 14h-1l-3-52-1-18v-42l3-18 5-16 8-15 9-8 10-5 13-3z" fill="#E7B58D"/>
<path transform="translate(714,492)" d="m0 0 1 3-1 2v6h2v39 2 9l3 7 1 6-1 6-2 3-1 14-2 1v10l-6 2-12-2-1 2v-3l-10-3-10-6-7-8-3-10 1-49 3-3 3-1 21-1 5-3 4-9 6-8 4-5z" fill="#F5DCB9"/>
<path transform="translate(344,181)" d="m0 0h32l17 3 18 6 15 8 7 6v34l-5-1-7-2v-21l-3-5-10-4-19-5-8-5-2-3-8 7-13 6-11 3-8 1 7-11 2-6-14 8-25 12-13 4-14 2-5 5-3 5-2 15-6 3h-3v2h-3v2h-2l-1-9-1-27 9-8 14-8 20-8 23-6z" fill="#AF7C41"/>
<path transform="translate(160,554)" d="m0 0 1 3-1 22-3 13-8 31-6 17-8 12-8 7-13 5-15 3-18 3-12 5-8 6-5 6-4 10-2-2v-8l2-10 8-16 11-12 8-7 19-12 18-11 13-10 8-7 9-13 7-14 4-13 2-6z" fill="#E7B68E"/>
<path transform="translate(165,627)" d="m0 0 16 5 11 2 19 1 10-2 6-3 4 2v2h2l8 11 4 8v12l-2 3h-2v2h-3v2l-5 1 1-6-9-2-10-6 2 4 7 8 2 9 1 1 1-3v2l4 1-1 4-7 6-9 4h-4l1-23v-15l-2-2h-9l-2 7-1 16-2 17-2 1-11-6-10-8-6-7-3-7-1-6v-33z" fill="#FCC99F"/>
<path transform="translate(441,473)" d="m0 0 4 4 6 13 9 13 7 15 7 22 6 29 1 12h-9l-12-5-5-7-2 3-7 16-8 11-3 4-12 60-1 7-2 5h-1v-11l-1-8h-32l-6 2v-2h-3l1 10v12l-1 9h-1l-2-42-1-12-15 1h-14l-10-1-2-2 41-1 5 1 16-4 16-6 11-7 11-9 2-6 3-3 4-5 4-7 3-7 1-5h2l3-12 2-15v-17l1-2h-3v-16l-6-19-8-16z" fill="#5791B8"/>
<path transform="translate(288,654)" d="m0 0 3 1h35l1 3 2 1 1 9v28l9 2 4 4 2 5h-2l-1 5-9 9-4 3h-2l-1 3-6 2-12 5-10 1-3-7-4-23-1-9-3-12-2-10-1-18z" fill="#5C9BC4"/>
<path transform="translate(337,456)" d="m0 0h3l1 4 13 1 6 2 2 7 2 4h8l1 6v16l-1 6h-8l-7 6v7l-5 5h-16l-12-3-1-7-7-1-7-9-1-9 1-10 1-7 7-7 7-2-1-4 4-4h9z" fill="#63A7D4"/>
<path transform="translate(884,366)" d="m0 0h12l16 2 1 2 7 2 11 6 9 6v4l-14 9-12 5-15 3h-14l-15-3-12-5-5-2v-2l-6-2-4-3-1-6 7-6 7-2 2-2 10-1v-2z" fill="#FCA295"/>
<path transform="translate(532,367)" d="m0 0h10l9 1h20l-5 5h-2v2l-8 6-14 14-5 7v2l15 2-3 1-2 11-4 6-5 3h-12l-15-4-12-6-5-5-2-3v-7l3-5 9-6 10-15 8-6z" fill="#D9A679"/>
<path transform="translate(368,632)" d="m0 0h5l1 1 2 31v20l-1 1h-11l-6-1v11l-3 7-5 4h-2l-4-8-6-3v-14l-4-11-2-6h-2l1-21 1-9 1-1h25z" fill="#FAA698"/>
<path transform="translate(454,568)" d="m0 0 8 8 10 4h10l3 30-7 6-7 9-3 3-17-2-11-2-1 12-4 15-7 12-5 6h-1l1-10 9-46 3-12 6-7 8-14z" fill="#DAA87B"/>
<path transform="translate(317,79)" d="m0 0h3l3 4 6 1-2 3h-7l-2 1 1 5-3 2v38l-5 3-8 3-2 2-31 4h-6l2-9 7-19-1-4-4-4 4-1 6 1 2-5 8-8 18-8 11-3z" fill="#FCE981"/>
<path transform="translate(277,373)" d="m0 0h5l2 7 1 4 3 1 4 5 8 4-1 7-1 3h2v-2l4-3h2v-3h11l1 3 10 5 12 2v6h4v-9l4-1 7 2h15v4l2-1 2-5 8-6 2-3 12-3 4-5 1-2h6v4h4l-1-6 5-3 2-2v8l-3 8-5 5-7 1-4 5-7 4-7 2-8 7-10 3h-11l-5-2-5 1-5 2h-8l-12-5v-2h-2l-1-2-13-1-9-4-8-7-3-7-2-5-1-6-2-1v-2l-3-1z" fill="#FBC79D"/>
<path transform="translate(239,553)" d="m0 0 2 1 4 15 3 5 2 1 2 9 4 4 1 3 2 1 1 3 6 6v-2h3v5h2l1 5h2l1 5 5 1v2h2v-2h2l3 5 8 4 11 4 6 2 13 2h3 6l-1 2-3 34h-1l-1-9-3-3h-35-3-3l1 5v9h-1l-11-56-1-3-8-7-10-12-8-14-6-16z" fill="#5791B8"/>
<path transform="translate(678,799)" d="m0 0 3 1 4 14 1 6v13l-4 8-4 3-10 1-12-3-13-7-6-7-3-7v-16l1-3 12 4h14l12-3 4-2z" fill="#96725A"/>
<path transform="translate(611,807)" d="m0 0 3 1 5 18v14l-4 8-6 4h-11l-12-4-9-5-8-9-2-7v-13l1-5 6 2 4 2h20l8-1v-2z" fill="#96725A"/>
<path transform="translate(670,293)" d="m0 0 4 1 1 2 1 14 4 10 9 10 10 8 8-1-2 3-4 1-3 6-5 5-9 5-6 3-11 1-2-6-5-8-4-11-1-4v-15l4-12 7-9z" fill="#DDD3BB"/>
<path transform="translate(807,290)" d="m0 0 5 1 7 6 5 8 3 9 1 11-2 12-7 16v5h-8l-12-4-10-6-6-7v-2l-4-1 6-2 10-9 6-8 4-10 1-18z" fill="#DDD3BB"/>
<path transform="translate(449,251)" d="m0 0 11 2 4 1 5 8 1 4v13l3 1-4 1-4 9-5 7-9 6-3 1h-12l-3-1v-15l5-2v-2l-5-1 3-4h3v-3l-6 1v-20l9-3z" fill="#FCC99F"/>
<path transform="translate(235,262)" d="m0 0h8l8 3 7 4 1-3v20l-6 7 6-3 1 6v15l-5 4-1-1-11-1-7-4-7-8-4-9-2-7-3-2h3v-7l2-6 4-6z" fill="#FCC99F"/>
<path transform="translate(329,693)" d="m0 0 11 2 6 4 2 4 2 74v53l-10 10-6 5-4-1-1 2v-3l4-1v-2h2l-1-6v-13l5-13 3-2 1-5-1-2-1-14-2-4-1-21 1-7v-8l-3-10v-7l-5 1-2-6 12-11 3-6-3-6-11-4z" fill="#8697A7"/>
<path transform="translate(379,191)" d="m0 0 4 5 9 4 22 6 6 4 2 4-1 26h-1v-5l-10-2h-7l-23-6-10-2 1-2v-12l-2-4v-3h2v-2l2-2-2-2z" fill="#F8B97F"/>
<path transform="translate(611,383)" d="m0 0h23l13 3 1 3-9 12-9 6-6 2-7 1h-11l-24-4-13-3 5-5 16-9 16-5z" fill="#FCA295"/>
<path transform="translate(666,577)" d="m0 0 6 9 7 6 11 5 5 2-1 8-5 12-2 11-2-1-7 11-11 12-3 2-3-1h2v-2h-2l2-10 1-44 2-10h-2l1-7z" fill="#E6B48B"/>
<path transform="translate(356,223)" d="m0 0 14 1 23 5 21 7v21l-5-1-16-6-25-5-15-1 1-18z" fill="#BC8C57"/>
<path transform="translate(326,225)" d="m0 0h7l3 4 1 13-4 4-23 4-18 6-10 5-4-1v-20l4-3 25-8z" fill="#BC8C57"/>
<path transform="translate(452,493)" d="m0 0 5 5 8 15 9 27 6 29 1 12h-9l-12-5-6-8 3-16 1-21-2-20z" fill="#826D58"/>
<path transform="translate(595,373)" d="m0 0h22l14 3 12 5 6 3v3l-15-3h-23l-16 4-16 8-11 7-21-3 2-5 10-8 17-9 13-4z" fill="#E99487"/>
<path transform="translate(884,366)" d="m0 0h12l16 2 1 2 7 2 11 6 9 6-1 4-8-4-11-4-7-1h-21l-17 4-21 10-5-1-6-3-1-7 7-6 7-2 2-2 10-1v-2z" fill="#E99487"/>
<path transform="translate(570,338)" d="m0 0h30l16 4 13 7 13 8 10 6 4 3-1 2-19-6-17-3h-19l-14 3-7 2 3-4h2l2-5v-6l-4-4-2-1-13-2-6-2v-1z" fill="#DAA87C"/>
<path transform="translate(707,337)" d="m0 0h5l3 4v6l2 4-2 8-1 10 1 20 1 1 1 22-3 9 3-1-1 3-3 1v3l3 1v6h-3l2 4v3l-2 1 2 4 1 4v14l-1 5 1 3-2 2 3 7-1 11-3 1v-7l-9-14-3-3-1-3v-10l6-18 1-13 5-8 2-7v-8l-3-12-1-24-2-6v-7l1-7-3-5z" fill="#F5DCB9"/>
<path transform="translate(776,543)" d="m0 0h12l4 2 3 5 1 7-2 6-7 9-7 4-4 1h-8l-6-5-1-3v-9l5-10h2v-2z" fill="#E89687"/>
<path transform="translate(690,542)" d="m0 0h10l9 6 6 9 1 2v11l-2 5-4 2h-11l-10-7-4-5-2-4v-11l3-5z" fill="#E89587"/>
<path transform="translate(503,647)" d="m0 0h2l3 8 1 3h2l1 5-2 4-8 17-1 3v9l-4 1-6-1-5-5v-10l2-4-1-10 4-8 9-10z" fill="#F6B982"/>
<path transform="translate(414,706)" d="m0 0 2 1 2-1 7 3 7 6 6 7 1 2v6l-5 5-3 1h-22l-1-4 3-12 2-13z" fill="#5691B8"/>
<path transform="translate(171,720)" d="m0 0h21v8l-2 7h-16l-14-1-21-5-1-2 12-4z" fill="#F2DBBA"/>
<path transform="translate(431,464)" d="m0 0h1v13l-2 14-3 8-18-2-7-2v-1l9-1h11v-4l-1 1h-9l-5-4-1-2v-9l3-6 7-1 6 4 4 8 4-15z" fill="#5891B8"/>
<path transform="translate(449,251)" d="m0 0 11 2 4 1 5 8 1 8-9-1 2-1 2-8-3-3-1 1v7l-4 2h-3v2l-9 3-5 4-7 1v-20l9-3z" fill="#F8B97F"/>
<path transform="translate(235,262)" d="m0 0h8l8 3 7 4 1-3v20l-3 3v-2l-4-2-3-2v-2l-13-2 1-3-5-3-1-4v-2l-1 2v7l4 3h-10l-1 4v-7l2-6 4-6z" fill="#F7B97F"/>
<path transform="translate(218,622)" d="m0 0 7 2 3 3 1 3-11 5-12 1-14-1-19-4-9-3 1-5 13 2h28z" fill="#F8BB84"/>
<path transform="translate(445,588)" d="m0 0 1 2-5 8-3 4h-2l-2 13-2 6 5 1 3 2-1 12-4 15-7 12-5 6h-1l1-10 9-46 3-12 6-7z" fill="#FAA597"/>
<path transform="translate(304,253)" d="m0 0h7l5 3 3 5v7l-4 6-7 3-7-2-5-6v-9l3-5z" fill="#776353"/>
<path transform="translate(380,253)" d="m0 0h7l5 3 3 4v9l-5 6-7 2-7-3-4-6v-7l4-6z" fill="#776352"/>
<path transform="translate(686,545)" d="m0 0h1l3 10 3 3v2l10 5h9l2-1 1-5h1v11l-2 5-4 2h-11l-10-7-4-5-2-4v-11z" fill="#FBA394"/>
<path transform="translate(381,716)" d="m0 0h20l5 1 3 1 1 2v8l-2 8-12-3-13-6v-3h-2l-1-7z" fill="#63A7D4"/>
<path transform="translate(791,548)" d="m0 0 4 4 1 5-2 6-7 9-7 4-4 1h-8l-6-5-1-6 1-2 10 1 8-3 6-4z" fill="#FBA394"/>
<path transform="translate(300,715)" d="m0 0 7 1h9l7 2h3l-1 7-4 1-2 4-11 4-10 1-1-2v-14z" fill="#63A7D4"/>
<path transform="translate(208,720)" d="m0 0 16 1 16 3 6 3-1 2-17 4-17 2h-5l1-11z" fill="#F1DBBA"/>
<path transform="translate(814,428)" d="m0 0h10l7 4 4 8-1 8h-3l-6-7-3-1h-9l-6 4-1 2h-2v-9l4-6z" fill="#796452"/>
<path transform="translate(654,422)" d="m0 0h10l6 3 4 5 1 2v9l-1 2h-2l-5-7-5-2h-9l-5 3-3 3-1-2v-6l4-6z" fill="#786351"/>
<path transform="translate(215,662)" d="m0 0 7 6 4 9v5l2-4v2l4 1-1 4-7 6-6 3h-5v-14z" fill="#FBC89E"/>
<path transform="translate(329,694)" d="m0 0 1 2 9 2 4 4 2 5h-2l-1 5-9 9-4 3h-2l1-27z" fill="#5691B9"/>
<path transform="translate(226,841)" d="m0 0h10l4 2 3 5v5l-5 5h-8l-6-3v-2l-3-1v-7z" fill="#85D5D9"/>
<path transform="translate(421,674)" d="m0 0 3 4 5 14v12l-4 4-9-5v-10l3-15z" fill="#FAA597"/>
<path transform="translate(441,473)" d="m0 0 4 4 6 13 3 7 3 14 2 20-1 21-3 14-6 16-7 12-5 5 1-5 3-3 4-7 3-7 1-5h2l3-12 2-15v-17l1-2h-3v-16l-6-19-8-16z" fill="#5691B9"/>
<path transform="translate(261,728)" d="m0 0h2l3 7 5 22 5 18-1 4-5-8-6-14-6-15v-6z" fill="#ECD2BA"/>
<path transform="translate(426,850)" d="m0 0h10l6 4 2 4-1 6-3 2h-10l-6-3-2-7 2-5z" fill="#85D5D9"/>
<path transform="translate(485,609)" d="m0 0 10 3 5 3h11l1 5 2 2h-6l-2-1v2h-15l-9-3-4-4 5-5z" fill="#F9BA82"/>
<path transform="translate(283,472)" d="m0 0h6l5 5v9l-4 5-2 1h-6l-4-3-1-3v-8l4-5z" fill="#F7D272"/>
<path transform="translate(412,470)" d="m0 0 6 1 4 4 1 2v8l-4 5h-7l-5-4-1-2v-9l4-4z" fill="#F6D378"/>
<path transform="translate(376,247)" d="m0 0h9l11 3 3 8-1 9-1 2h-2l-1-9-4-5-3-1h-7l-5 3-2 4-1 8-1-2h-2l-1-9 4-8z" fill="#F9F7F3"/>
<path transform="translate(326,225)" d="m0 0h7l2 2-1 4-35 5-20 5 1-3 27-9z" fill="#B07D42"/>
<path transform="translate(429,363)" d="m0 0 10 1 10 5 2 5-4-1-3-2v-2l-4-2-8-1-1 2-1 8-3 6-2 2-1 5-4-1-2 6h-1v-8l2-12 5-5z" fill="#5790B7"/>
<path transform="translate(277,373)" d="m0 0h5l2 7 1 4 3 1 4 5 8 4-1 10v3l-4-1-8-7-3-7-2-5-1-6-2-1v-2l-3-1z" fill="#FAC69C"/>
<path transform="translate(415,693)" d="m0 0h1l1 10 12 6 9 8 4 7v10l-4 15-2 1-2-7-2-5-19-1v-1l18-1 6-2 1-9-4-6-8-8-5-2-4-1-2 2-1-3z" fill="#8798A8"/>
<path transform="translate(295,457)" d="m0 0 3 1 1 6 5 18v11l-9 3-10 2h-5l4-3 2-1-4-2 12-1 5-1-4-31z" fill="#5691B8"/>
<path transform="translate(235,500)" d="m0 0 2 1-1 8v26l3 20 7 21 7 13 7 9 9 10 4 3-1 3-5-4-7-8-2-4h-2l-4-5-6-12-4-9-4-12-1-1-1-9-1-2-2-13v-31z" fill="#EDD2BA"/>
<path transform="translate(688,540)" d="m0 0 8 1v1l-8 2-3 3-1 3v11l5 8 9 6-1 3-9-3v-2l-4-2-6-10-1-9 3-7 5-4z" fill="#EED1B8"/>
<path transform="translate(370,335)" d="m0 0 4 1-11 5-14 3h-24l-8-2v-1l35-3z" fill="#766251"/>
<path transform="translate(784,541)" d="m0 0 8 1 6 4 3 4v9l-4 8-9 8h-5v2l-4-1 9-6 6-8 1-8-3-9-6-2z" fill="#F5DCB9"/>
<path transform="translate(200,651)" d="m0 0 10 1 5 5v16l-2 21 2 1h-4l1-23v-15l-2-2h-9l-2 7-1 16-2 17-2 1-4-3 4-2 3-37z" fill="#E3D3BB"/>
<path transform="translate(268,362)" d="m0 0h6l4 3v6l2 2-7 1-1-2-9-1-8 3-5 6-2 3h-2l2-4 8-10 9-6z" fill="#846D57"/>
<path transform="translate(214,658)" d="m0 0 14 7 6 2 1 4h-2l1 4-2 5-4 1-2 1-4-13-8-8z" fill="#F8BA81"/>
<path transform="translate(239,553)" d="m0 0 2 1 4 15 3 5 2 1 2 9 4 4 1 3 2 1 1 3 6 6v-2h3v5h2l1 5h2l1 5h-2l-1-3-8-7-10-12-8-14-6-16z" fill="#6092B5"/>
<path transform="translate(306,250)" d="m0 0h13l3 5v9l-2 6h-1l-1-9-4-6-3-1h-7l-5 2-3 6-1 6-3-3v-6l2-5z" fill="#FAF8F5"/>
<path transform="translate(345,444)" d="m0 0h30l14 3 5 1-1 2-18-2h-33l-16 2-1-2z" fill="#E0D5BB"/>
<path transform="translate(261,733)" d="m0 0 2 1 9 36-3-1-9-22v-10z" fill="#E7B791"/>
<path transform="translate(457,534)" d="m0 0 2 1-1 17-3 14-6 16-7 12-5 5 1-5 3-3 4-7 3-7 1-5h2l3-12 2-15v-9z" fill="#5991B8"/>
<path transform="translate(356,223)" d="m0 0 14 1 19 4v2h-34v-6z" fill="#B07D43"/>
<path transform="translate(289,705)" d="m0 0h1l1 14 2 4 1 8 3 5h-7l-2-8v-5h2l-4-8-1-3 3-1-1-4z" fill="#8696A6"/>
<path transform="translate(284,702)" d="m0 0 2 3-11 8-8 7-4 5-1-8-6-5-7-3-7-2-1-4 5 3 7 2 8 5 3 3v2l3-1 5-6 11-7z" fill="#ECD2BA"/>
<path transform="translate(273,614)" d="m0 0h1l10 50v2h-2v26h-1l-1-35-6-30-1-3z" fill="#EDD2BA"/>
<path transform="translate(240,497)" d="m0 0 1 3-3 8v29l1 6v9l-2-3-2-14v-26l4-11z" fill="#6394B6"/>
<path transform="translate(263,370)" d="m0 0 9 1 4 9v7h-1v-5h-2l-1-5h-2l-1-3h-7l-9 4v2h-3l2-4 4-4z" fill="#5891B8"/>
<path transform="translate(371,630)" d="m0 0 3 1-1 2-15 1h-14l-10-1-2-2z" fill="#6394B6"/>
<path transform="translate(316,248)" d="m0 0 5 1 3 4v10l-3 9-6 5h-7l4-2 5-5 4-6v-9l-2-4-9-1v-1z" fill="#EED6BC"/>
<path transform="translate(372,246)" d="m0 0h8l-2 2-5 2-4 8v9l4 1 3 5 7 3v1h-8l-7-8-1-3v-10z" fill="#F0D7BC"/>
<path transform="translate(445,588)" d="m0 0 1 2-5 8-3 4h-2l-2 13-5 25-2 8h-1l1-9 5-26 3-12 6-7z" fill="#EED2BA"/>
<path transform="translate(369,199)" d="m0 0 5 1-1 2h-2v2h-2l3 7v12l-4-1-1-16z" fill="#FCC89E"/>
<path transform="translate(147,164)" d="m0 0 4 1 5 7 2 1-2-5v-4h2l3 11-6-1v5l-4-5-5-8z" fill="#F9D379"/>
<path transform="translate(441,473)" d="m0 0 4 4 6 13 3 7v6h-2l-5-15-7-12z" fill="#6899B9"/>
<path transform="translate(231,263)" d="m0 0m-2 1h2l-1 5v7l4 3h-10l-1 4v-7l2-6z" fill="#F9BA80"/>
<path transform="translate(239,553)" d="m0 0 2 1 4 15 3 5 2 1 1 11-3-4-6-14-3-10z" fill="#6694B5"/>
<path transform="translate(447,379)" d="m0 0h1v8l-2 12-3 11-2 10-1-3 1-11 5-23z" fill="#699BBC"/>
<path transform="translate(487,847)" d="m0 0 4 2 4 10v8l-3 1-2-1 1-4v-1-3l-3-4z" fill="#8B9CAC"/>
<path transform="translate(451,570)" d="m0 0h2l-3 10-6 11-6 8-1-3 4-5 4-7 3-7 1-5h2z" fill="#6994B3"/>
<path transform="translate(396,251)" d="m0 0 3 1 1 2v13l-4 6-3 3-8 1 3-2 5-4 1-2h3l1-11z" fill="#F1D9BD"/>
<path transform="translate(395,81)" d="m0 0h3l-1 5-3 5 2 3h-2v2h-2v-6l-3 1-1-3h2l2-4z" fill="#FADF88"/>
<path transform="translate(313,481)" d="m0 0 4 3v8l-3 3-1-2h-2l1-3 1-4-3-1z" fill="#5C9BC5"/>
<path transform="translate(276,384)" d="m0 0 2 4 4 13v8l-4-4-2-1v-4h3l-4-13z" fill="#6799BA"/>
<path transform="translate(292,255)" d="m0 0h2l-1 10 1 2 1-5h1l2 9 5 4 3 2-7-1-8-9v-11z" fill="#EDD8BD"/>
<path transform="translate(463,256)" d="m0 0 4 2 3 8-1 4-8-1 2-1 2-8z" fill="#F9BA80"/>
<path transform="translate(763,442)" d="m0 0 2 2 2 9-1 3-1 24h-1z" fill="#E7B48B"/>
<path transform="translate(413,720)" d="m0 0 2 3 1 9-4 4h-3v-3h2l1-12z" fill="#8395A7"/>
<path transform="translate(419,99)" d="m0 0h2l-1 6-5 7-5-2 6-8z" fill="#FADB7C"/>
<path transform="translate(415,693)" d="m0 0h1l1 10 8 4v3l-8-3-2 2-1-3z" fill="#899BAC"/>
<path transform="translate(294,233)" d="m0 0 2 1-1 3-16 4 1-3z" fill="#B38047"/>
<path transform="translate(421,674)" d="m0 0 2 4h-2l-3 16v9l2 1-4-1v-10l3-15z" fill="#ECD2BA"/>
<path transform="translate(277,373)" d="m0 0h5l2 7 1 3-3 1-1-3-2-1v-2l-3-1z" fill="#EEBB91"/>
<path transform="translate(372,246)" d="m0 0h8l-2 2-5 2-4 8v7h-2v-9z" fill="#F3DABA"/>
<path transform="translate(294,255)" d="m0 0 4 1-3 12-3-3v-6z" fill="#FBFBF9"/>
<path transform="translate(327,839)" d="m0 0h1v10l-6-1 1-4 2-4z" fill="#6292B5"/>
<path transform="translate(281,473)" d="m0 0h2l1 6-1 1h-5v6h-1v-8z" fill="#F5DE97"/>
<path transform="translate(281,660)" d="m0 0h2l1 6h-2v26h-1z" fill="#E8D2BB"/>
<path transform="translate(317,79)" d="m0 0h3l3 4 6 1-2 3-7-1-3-3z" fill="#FAE592"/>
<path transform="translate(503,647)" d="m0 0h2l3 8 2 5-5-1-1-6-2-1z" fill="#DDA97B"/>
<path transform="translate(378,839)" d="m0 0 5 5 1 4-6 1z" fill="#5A92B9"/>
<path transform="translate(288,424)" d="m0 0 3 4 1 3 1 7 2 9-1 4-6-22z" fill="#DDD4BC"/>
<path transform="translate(440,365)" d="m0 0 6 2 4 4 1 3-4-1-3-2v-2l-4-2z" fill="#5991B7"/>
<path transform="translate(240,725)" d="m0 0 6 2-1 2-9 1v-4z" fill="#DFD4BB"/>
<path transform="translate(454,502)" d="m0 0 2 4 1 5v9h-2l-1-10-1-7z" fill="#5C91B6"/>
<path transform="translate(299,255)" d="m0 0 6 2-1 5-5-1-1-5z" fill="#8499A9"/>
<path transform="translate(133,169)" d="m0 0 3 1 3 7-4 2-3-6z" fill="#F9D881"/>
<path transform="translate(688,352)" d="m0 0 2 1-7 5-5 2-11 1 1-2 9-1z" fill="#EDD1B8"/>
<path transform="translate(376,255)" d="m0 0 5 2-1 5-5-1-1-4z" fill="#8897A6"/>
<path transform="translate(489,674)" d="m0 0h1l-1 9-1 4 1 5-2 1-1-2v-10z" fill="#F3C49E"/>
<path transform="translate(414,468)" d="m0 0 6 2 4 5v2h-2l-2-4-4-2-8 1 1-3z" fill="#6192B4"/>
<path transform="translate(434,441)" d="m0 0 2 4-4 15h-1v-7z" fill="#6999BA"/>
<path transform="translate(523,616)" d="m0 0 6 1v2l-9 2h-5l3-2z" fill="#F9BA80"/>
<path transform="translate(493,858)" d="m0 0 2 1v8l-3 1-2-1 1-4v-1z" fill="#8B9EB0"/>
<path transform="translate(239,553)" d="m0 0 2 1 3 12v5l-2-3-3-10z" fill="#6693B3"/>
<path transform="translate(309,484)" d="m0 0 4 2v5l-4 2-1-5z" fill="#64A8D5"/>
<path transform="translate(262,436)" d="m0 0h2l2 5v10l-2-4-2-7z" fill="#729EBC"/>
<path transform="translate(440,413)" d="m0 0 1 4-1 10-2 5h-1v-9l2-7z" fill="#6397BA"/>
<path transform="translate(195,678)" d="m0 0h1v17l-2 1-4-3 4-2z" fill="#E7D3BA"/>
<path transform="translate(450,490)" d="m0 0 2 1 2 6v6h-2l-2-7z" fill="#6A96B3"/>
<path transform="translate(303,251)" d="m0 0 6 1v1l-12 3-3-1 3-2z" fill="#F1DFC8"/>
<path transform="translate(425,649)" d="m0 0h1l-1 18-3 2 1-10z" fill="#ECD2BA"/>
<path transform="translate(444,586)" d="m0 0 1 3-7 10-1-3 4-5z" fill="#6092B4"/>
<path transform="translate(715,481)" d="m0 0h2l-1 11-3 1v-9z" fill="#F3D9BA"/>
<path transform="translate(156,164)" d="m0 0h2l3 11-6-1 1-2 2 1-2-5z" fill="#F8DA99"/>
<path transform="translate(235,500)" d="m0 0 2 1-1 8-2 2-1-7z" fill="#E9D4B8"/>
<path transform="translate(442,403)" d="m0 0h2l-1 7-2 10-1-3 1-11z" fill="#75A5C0"/>
<path transform="translate(593,207)" d="m0 0h8l2 1-2 4-4 1 1-4-5-1z" fill="#F8D98F"/>
<path transform="translate(521,696)" d="m0 0 1 2h2l-1 5h-2v3h-2l1-9z" fill="#F9BA81"/>
<path transform="translate(457,534)" d="m0 0 2 1-1 11-2-1v-9z" fill="#5B91B6"/>
<path transform="translate(250,480)" d="m0 0 2 2-9 11v-3z" fill="#729DBA"/>
<path transform="translate(316,248)" d="m0 0 5 1 2 4-2 2-2-4-9-1v-1z" fill="#F2D7BA"/>
</svg>
